<svg class="img-fluid" id="outputsvg" xmlns="http://www.w3.org/2000/svg" style="transform: none; transform-origin: 50% 50%; cursor: move;" width="700" height="379" viewBox="0 0 7000 3790"><g id="l2IvcAcEWwkXKaIcVn4r0BJ" fill="rgb(255,255,255)" style="transform: none;"><g><path id="peEZ5XCag" d="M0 1895 l0 -1895 3500 0 3500 0 0 1895 0 1895 -3500 0 -3500 0 0 -1895z m6591 1474 c168 -247 190 -520 63 -773 -46 -91 -65 -117 -144 -200 -197 -206 -488 -297 -733 -228 -42 12 -88 22 -102 22 -22 0 -25 -4 -25 -36 0 -20 8 -48 19 -62 44 -63 85 -177 102 -285 43 -276 -108 -593 -361 -756 -123 -79 -290 -131 -423 -131 -93 0 -241 41 -349 96 -77 40 -110 65 -191 146 -80 79 -105 98 -128 98 -25 0 -29 -4 -29 -29 0 -15 -7 -66 -15 -112 -26 -153 -95 -287 -208 -405 -292 -309 -718 -339 -1049 -76 -170 135 -298 381 -298 571 l0 51 -37 -1 c-33 0 -43 -6 -75 -49 -120 -158 -386 -290 -585 -290 -190 0 -387 81 -534 218 -125 117 -197 239 -240 404 -18 69 -20 101 -16 188 7 130 25 199 83 316 24 49 44 102 44 117 0 24 -4 27 -32 27 -18 0 -62 -10 -98 -21 -89 -29 -244 -29 -352 0 -144 38 -271 112 -381 224 -193 196 -270 481 -198 732 26 87 79 196 126 258 l36 47 3044 0 3044 0 42 -61z"></path></g></g><g id="l6h7SzGitYEZ8U20d249LVV" fill="rgb(254,211,2)" style="transform: none;"><g><path id="p1E6cQr6I3" d="M1572 3398 c3 -35 14 -83 25 -108 11 -25 31 -72 43 -105 13 -33 27 -64 32 -70 4 -5 8 -17 8 -28 0 -10 9 -35 19 -55 27 -53 53 -131 59 -174 4 -34 7 -38 33 -38 25 0 69 29 69 45 0 21 255 358 274 363 10 2 46 -95 46 -126 0 -7 7 -12 15 -12 8 0 15 -9 15 -19 0 -30 11 -51 26 -51 8 0 14 -9 14 -21 0 -22 12 -38 88 -114 23 -24 42 -51 42 -59 0 -9 18 -25 40 -36 26 -13 40 -27 40 -40 0 -11 7 -20 15 -20 8 0 15 -4 15 -9 0 -5 13 -12 29 -16 37 -8 47 -32 18 -41 -12 -3 -60 -24 -107 -46 -110 -51 -304 -128 -323 -128 -31 0 -150 -52 -168 -73 -10 -12 -18 -37 -19 -54 0 -32 2 -33 39 -33 22 0 43 5 46 10 4 6 33 24 66 40 70 36 155 47 218 30 60 -16 37 -30 -52 -30 -99 0 -157 -22 -212 -81 -36 -38 -45 -55 -45 -84 0 -32 2 -35 31 -35 22 0 40 10 65 36 42 42 89 64 141 64 54 0 66 -10 53 -44 -5 -15 -10 -45 -10 -67 l0 -39 45 0 c33 0 45 4 45 15 0 36 49 122 85 149 61 47 107 58 198 50 l80 -7 -6 49 -5 49 96 -6 c53 -4 104 -8 112 -8 12 -1 12 -4 -2 -12 -12 -6 -18 -22 -18 -44 0 -34 1 -35 38 -35 21 0 47 7 60 15 28 21 88 4 134 -37 38 -34 98 -40 98 -9 0 25 21 41 65 48 51 8 68 -17 22 -33 -36 -12 -35 -5 -36 -256 -1 -107 -1 -108 -25 -108 -13 0 -26 7 -30 15 -3 9 -18 15 -40 15 -32 0 -36 -3 -41 -33 -4 -19 -5 -47 -3 -63 l3 -29 305 -7 c322 -7 372 -5 391 18 6 8 18 14 26 14 10 0 13 11 11 43 -3 38 -6 42 -32 45 -16 2 -46 -4 -67 -13 -41 -19 -92 -15 -125 10 -17 13 -14 14 37 15 45 0 60 4 77 23 26 27 31 87 7 87 -8 0 -17 11 -21 25 -3 14 -10 25 -14 25 -5 0 -23 24 -41 53 -23 36 -32 62 -30 87 4 81 31 98 31 20 l0 -50 45 0 45 0 0 45 0 45 45 2 c25 0 50 1 57 2 6 1 13 -5 16 -11 2 -9 -7 -13 -27 -13 -30 0 -31 -1 -31 -50 0 -48 1 -50 28 -50 51 0 73 11 79 41 3 15 11 30 19 33 16 6 20 96 4 96 -5 0 -10 7 -10 15 0 9 9 15 24 15 13 0 29 7 36 15 15 18 62 42 120 61 56 19 110 46 110 56 0 5 7 8 15 8 12 0 15 -15 15 -75 0 -60 -3 -75 -15 -75 -10 0 -15 -11 -15 -35 l0 -35 115 0 c70 0 115 -4 115 -10 0 -5 -14 -10 -31 -10 l-31 0 3 -120 c3 -77 8 -123 17 -132 18 -18 15 -28 -8 -28 -16 0 -20 -7 -20 -33 0 -44 -15 -57 -67 -57 l-43 0 0 -50 0 -50 45 0 c50 0 94 16 113 42 7 10 26 18 43 18 26 0 29 3 29 34 0 25 -7 39 -22 50 -27 19 -12 20 42 4 37 -12 40 -15 40 -50 l0 -38 45 0 c43 0 44 1 51 35 3 19 10 35 14 35 4 0 11 37 15 82 5 61 14 96 34 132 24 46 90 106 115 106 6 0 -6 -11 -25 -25 -38 -25 -49 -43 -49 -76 0 -10 -4 -19 -10 -19 -5 0 -10 -16 -10 -35 0 -33 2 -35 35 -35 24 0 35 5 35 14 0 8 11 26 24 40 18 21 33 26 70 26 l46 0 0 38 c0 66 -9 82 -44 83 -17 0 -25 3 -18 6 23 9 13 67 -21 118 -37 58 -83 85 -144 85 -37 0 -44 4 -58 30 -10 19 -23 30 -36 30 -12 0 -67 21 -123 46 l-101 46 53 54 c29 30 55 54 57 54 8 0 52 49 58 64 4 9 11 16 17 16 5 0 10 6 10 14 0 8 11 17 24 20 17 4 28 17 36 41 6 19 19 41 29 47 27 20 66 86 90 157 39 114 36 115 131 -12 47 -62 90 -118 97 -125 6 -7 39 -50 73 -97 57 -79 64 -85 96 -85 35 0 35 1 33 38 -3 48 20 122 71 223 5 9 20 52 35 95 15 44 35 98 46 121 10 24 19 49 19 57 0 8 5 18 10 21 5 3 10 24 10 46 l0 39 -1931 0 -1931 0 4 -62z m2694 -245 c46 -22 44 -34 -3 -17 -80 28 -187 12 -235 -37 -25 -24 -29 -35 -26 -71 3 -35 7 -43 28 -49 23 -6 22 -6 -10 -10 -35 -4 -35 -4 -38 -59 -3 -73 20 -118 76 -149 37 -20 51 -22 98 -16 77 9 115 44 121 111 l5 49 -53 17 c-49 16 -50 17 -14 12 117 -16 132 -32 95 -102 -29 -54 -41 -67 -85 -91 -53 -28 -101 -27 -166 7 -139 70 -173 231 -72 343 77 85 181 108 279 62z m-1066 -53 c0 -63 -2 -70 -20 -70 -18 0 -20 7 -20 60 l0 60 -130 0 -130 0 0 -300 0 -300 45 0 c33 0 45 -4 45 -15 0 -13 -21 -15 -127 -15 -115 1 -126 2 -109 15 11 8 35 15 53 15 l33 0 0 96 0 96 -52 -4 c-29 -2 -61 -8 -70 -12 -16 -7 -18 -1 -18 62 0 87 6 107 26 87 9 -8 14 -35 14 -69 l0 -56 35 0 c34 0 35 1 35 40 0 29 4 40 15 40 13 0 15 25 15 164 l0 165 -47 4 c-27 2 54 4 180 5 l227 2 0 -70z m270 61 c0 -6 -17 -11 -37 -13 l-38 -3 -3 -205 -2 -205 -62 1 c-37 0 -63 5 -66 12 -2 8 11 12 37 12 l41 0 0 205 0 205 65 0 c36 0 65 -4 65 -9z m350 0 c0 -6 -19 -11 -42 -13 l-43 -3 2 -152 c0 -84 1 -171 2 -193 l1 -40 51 0 c31 0 48 -4 44 -10 -3 -5 -26 -10 -51 -10 l-44 0 0 -75 c0 -84 10 -97 83 -109 52 -10 48 -30 -5 -23 -75 10 -128 67 -136 146 -4 48 -6 51 -33 51 -15 0 -30 4 -33 9 -7 10 17 21 45 21 18 0 19 9 19 195 l0 195 -35 0 c-19 0 -35 5 -35 10 0 6 42 10 105 10 59 0 105 -4 105 -9z m-344 -536 c9 -8 27 -15 42 -15 51 0 52 -11 11 -79 -41 -68 -42 -68 -58 19 -5 30 -13 63 -16 73 -9 21 1 22 21 2z m-112 -47 c14 -13 28 -36 32 -52 6 -26 5 -28 -17 -21 -29 8 -79 59 -79 80 0 22 35 18 64 -7z m224 -245 c2 -9 -8 -13 -33 -13 l-37 0 4 -117 c2 -85 8 -127 20 -150 16 -33 16 -33 -8 -33 -17 0 -24 -6 -24 -19 0 -42 -10 -51 -61 -51 -55 0 -67 17 -16 22 l32 3 3 182 2 182 43 4 c59 5 70 4 75 -10z m1052 -117 c-5 -13 -12 -52 -16 -85 -6 -56 -9 -61 -31 -61 -35 0 -61 16 -78 49 -14 28 -14 29 25 55 22 14 43 26 48 26 5 0 17 9 27 20 25 27 36 25 25 -4z"></path><path id="pwu98spnb" d="M4940 2426 c0 -19 7 -41 15 -50 8 -8 15 -19 15 -25 0 -6 16 -11 35 -11 32 0 35 3 35 29 0 15 -5 42 -11 60 -10 28 -15 31 -50 31 -38 0 -39 -1 -39 -34z"></path><path id="pc0ysXr5v" d="M3997 2383 c-4 -3 -7 -21 -7 -40 0 -31 2 -33 34 -33 54 0 66 8 66 46 0 33 -1 34 -43 34 -24 0 -47 -3 -50 -7z"></path><path id="pecbLGvDg" d="M2491 2303 c-61 -32 -76 -63 -76 -157 0 -123 30 -159 145 -171 60 -6 68 -4 108 22 41 27 42 29 42 80 0 42 3 53 16 53 14 0 16 8 11 51 -11 92 -52 129 -150 136 -47 3 -70 0 -96 -14z m59 -200 c51 -29 59 -46 23 -51 -23 -3 -83 43 -83 64 0 19 2 18 60 -13z"></path><path id="pCA0HTsMX" d="M4290 2145 l0 -165 34 0 33 0 5 83 c3 45 3 119 0 165 l-5 82 -33 0 -34 0 0 -165z"></path><path id="pOEomn7Ao" d="M4770 2015 c0 -33 2 -35 35 -35 33 0 35 2 35 35 0 33 -2 35 -35 35 -33 0 -35 -2 -35 -35z"></path><path id="p7KfWpkhS" d="M4960 2015 c0 -33 2 -35 35 -35 33 0 35 2 35 35 0 33 -2 35 -35 35 -33 0 -35 -2 -35 -35z"></path><path id="pzXbyEltz" d="M2460 1904 l0 -42 45 -7 c25 -3 81 -3 125 1 l80 7 0 42 0 43 -125 -1 -125 -1 0 -42z"></path><path id="pU1sfllmi" d="M3210 1705 c0 -33 2 -35 35 -35 33 0 35 2 35 35 0 33 -2 35 -35 35 -33 0 -35 -2 -35 -35z"></path><path id="p17GCph9oS" d="M3360 1715 c0 -8 -7 -15 -15 -15 -11 0 -15 -11 -15 -39 0 -33 4 -40 25 -45 23 -6 25 -11 25 -61 l0 -55 35 0 c34 0 35 1 35 38 0 63 12 112 26 112 9 0 14 12 14 34 0 32 -2 34 -46 40 -69 9 -84 8 -84 -9z"></path><path id="pNlAUAZvy" d="M3580 1545 c0 -33 2 -35 35 -35 33 0 35 2 35 35 0 33 -2 35 -35 35 -33 0 -35 -2 -35 -35z"></path><path id="pL1cFLVGk" d="M3750 1515 c0 -33 2 -35 35 -35 33 0 35 2 35 35 0 33 -2 35 -35 35 -33 0 -35 -2 -35 -35z"></path><path id="p1Px0aggN" d="M2932 1423 c3 -36 5 -38 41 -41 l37 -3 0 40 0 41 -41 0 -40 0 3 -37z"></path><path id="pfTMPGuAv" d="M3216 1393 c-12 -75 -9 -83 28 -83 31 0 34 3 40 38 12 74 9 82 -28 82 -31 0 -34 -3 -40 -37z"></path><path id="pf59cIkvZ" d="M4160 1406 c0 -13 3 -38 6 -55 6 -27 10 -31 40 -31 37 0 41 12 28 79 -6 27 -10 31 -40 31 -29 0 -34 -3 -34 -24z"></path><path id="p9Ppkjw1U" d="M2770 1365 c0 -33 2 -35 35 -35 33 0 35 2 35 35 0 33 -2 35 -35 35 -33 0 -35 -2 -35 -35z"></path><path id="pmdGTDRep" d="M3880 1325 c0 -34 1 -35 40 -35 39 0 40 1 40 35 0 34 -1 35 -40 35 -39 0 -40 -1 -40 -35z"></path><path id="peZqlciBQ" d="M4030 1325 c0 -33 2 -35 35 -35 33 0 35 2 35 35 0 33 -2 35 -35 35 -33 0 -35 -2 -35 -35z"></path><path id="pBVXHxg1i" d="M3090 1305 c0 -33 2 -35 35 -35 33 0 35 2 35 35 0 33 -2 35 -35 35 -33 0 -35 -2 -35 -35z"></path><path id="pQLCEk3m0" d="M3350 1296 l0 -46 41 0 40 0 -3 43 c-3 41 -4 42 -40 45 l-38 3 0 -45z"></path><path id="pjbyhCOJn" d="M3730 1285 c0 -33 2 -35 35 -35 33 0 35 2 35 35 0 33 -2 35 -35 35 -33 0 -35 -2 -35 -35z"></path></g></g><g id="l1b4Wy4o2L4zAJtJe1uL7Ry" fill="rgb(254,196,4)" style="transform: none;"><g><path id="p596LaPvd" d="M1090 3413 c0 -25 6 -54 13 -62 7 -9 24 -49 36 -89 13 -40 27 -75 32 -78 5 -3 9 -16 9 -30 0 -13 5 -24 10 -24 6 0 10 -11 10 -24 0 -14 5 -28 10 -31 6 -3 10 -15 10 -25 0 -10 4 -20 8 -22 4 -1 23 -43 41 -93 18 -49 39 -103 46 -120 8 -16 24 -59 36 -95 12 -36 32 -88 45 -116 13 -28 24 -57 24 -63 0 -7 9 -25 20 -41 16 -22 18 -37 13 -79 l-6 -51 42 0 c22 0 41 4 41 8 0 5 8 17 18 28 10 10 60 82 112 159 52 77 98 142 103 143 4 2 7 10 7 18 0 8 5 14 10 14 6 0 10 7 10 15 0 9 7 18 15 21 8 4 15 12 15 20 0 8 5 14 10 14 6 0 10 6 10 13 0 8 11 27 25 43 14 16 35 43 46 61 21 34 49 35 49 3 0 -10 6 -20 14 -23 8 -3 20 -17 28 -31 35 -65 75 -116 100 -125 14 -5 29 -19 33 -30 3 -12 11 -21 16 -21 5 0 9 -7 9 -16 0 -9 10 -25 23 -36 12 -11 38 -34 57 -51 l34 -31 -69 -32 c-39 -18 -76 -33 -82 -33 -7 -1 -13 -10 -13 -21 0 -14 7 -20 21 -20 23 0 202 69 324 125 44 21 104 48 133 61 28 14 52 27 52 30 0 4 -6 4 -14 1 -17 -7 -30 20 -13 27 7 2 1 5 -13 6 -14 1 -19 4 -12 7 25 10 11 21 -25 20 -20 -1 -38 4 -41 11 -2 7 -10 12 -18 12 -8 0 -14 9 -14 20 0 13 -14 27 -40 40 -22 11 -40 27 -40 36 0 8 -19 34 -42 58 -24 24 -52 54 -63 67 -19 23 -21 28 -24 57 0 6 -7 12 -15 12 -16 0 -26 21 -26 57 0 18 -4 24 -15 19 -9 -3 -15 0 -15 8 0 32 -36 122 -55 138 -11 10 -15 17 -9 18 9 0 16 30 7 30 -17 0 -330 -411 -327 -430 1 -3 -8 -14 -19 -24 -20 -19 -20 -19 -14 3 3 13 -5 45 -19 77 -13 30 -24 62 -24 72 0 9 -9 31 -20 47 -11 17 -20 39 -20 50 0 12 -4 25 -8 30 -5 6 -19 37 -32 70 -12 33 -32 80 -43 105 -12 25 -21 66 -22 93 l0 47 -257 0 -258 0 0 -47z"></path><path id="pQ51PEFXj" d="M5400 3436 c0 -14 -4 -28 -10 -31 -5 -3 -10 -13 -10 -21 0 -8 -9 -33 -19 -57 -11 -23 -31 -77 -46 -121 -15 -43 -30 -86 -34 -95 -40 -80 -51 -104 -51 -114 0 -6 -10 -30 -21 -55 -18 -35 -19 -48 -10 -68 6 -13 9 -24 7 -24 -2 0 -33 40 -69 88 -35 49 -71 97 -80 108 -9 10 -55 70 -102 132 -48 62 -91 110 -96 107 -5 -4 -9 -1 -9 4 0 6 -7 11 -16 11 -10 0 -14 -6 -11 -14 3 -7 -1 -23 -8 -33 -8 -11 -24 -49 -36 -84 -24 -71 -63 -137 -90 -157 -10 -6 -23 -28 -29 -47 -8 -24 -19 -37 -36 -41 -13 -3 -24 -12 -24 -19 0 -7 -7 -15 -15 -19 -8 -3 -15 -10 -15 -15 0 -9 -46 -61 -54 -61 -8 0 -126 -122 -126 -130 0 -4 -6 -10 -12 -13 -15 -5 194 -106 237 -114 17 -3 35 -12 42 -20 10 -13 16 -12 44 3 20 10 53 16 86 15 l53 -1 0 34 c0 28 -4 35 -25 40 -33 8 -31 27 5 48 17 9 30 24 30 33 0 22 30 65 44 65 11 0 57 59 125 161 l24 35 21 -21 c12 -12 27 -33 35 -48 8 -15 18 -27 23 -27 4 0 8 -7 8 -15 0 -9 7 -18 15 -21 8 -4 15 -12 15 -20 0 -8 6 -14 13 -14 6 0 25 -21 42 -48 16 -26 32 -49 35 -52 4 -3 50 -69 104 -147 93 -137 99 -143 132 -143 27 0 34 4 34 19 0 11 6 32 14 48 30 61 46 101 66 158 28 79 32 90 65 157 15 31 29 75 32 97 3 22 12 46 19 52 8 6 14 19 14 29 0 9 11 30 25 46 16 18 25 41 25 62 0 18 4 40 9 50 50 98 61 121 61 132 0 7 14 41 31 76 17 37 29 76 27 92 l-3 27 -252 3 -253 2 0 -24z"></path><path id="puN5j8YAA" d="M2716 3154 c-9 -23 -8 -24 14 -24 13 0 20 7 20 20 0 24 -25 27 -34 4z"></path><path id="p18QA5Hol6" d="M4050 3100 l0 -29 35 20 c19 12 35 25 35 30 0 5 -16 9 -35 9 -32 0 -35 -2 -35 -30z"></path><path id="p5MFg1qBH" d="M4232 3118 c3 -7 19 -18 36 -25 31 -13 32 -12 32 12 0 22 -4 25 -36 25 -23 0 -34 -4 -32 -12z"></path><path id="pKucsPfhN" d="M2686 2975 c-4 -12 -9 -58 -21 -226 -7 -92 3 -101 67 -64 49 28 78 32 78 10 0 -8 7 -15 15 -15 12 0 15 18 15 105 0 87 -3 105 -15 105 -8 0 -15 -7 -15 -15 0 -8 -6 -15 -14 -15 -10 0 -16 -14 -19 -42 -3 -37 -4 -35 -5 15 -1 37 -8 64 -17 74 -8 8 -14 18 -12 21 3 4 -8 19 -24 33 -19 19 -29 23 -33 14z"></path><path id="pTfS5vm40" d="M3980 2935 c0 -39 24 -50 33 -15 3 13 10 18 21 14 12 -4 16 0 16 15 0 17 -6 21 -35 21 -33 0 -35 -2 -35 -35z"></path><path id="p10eGcplSL" d="M4210 2952 c0 -13 8 -22 23 -25 13 -3 7 -5 -16 -6 -47 -1 -46 -21 1 -36 20 -6 31 -14 28 -22 -3 -7 -1 -13 4 -13 6 0 10 16 10 35 l0 34 50 -6 c40 -5 50 -3 50 9 0 15 -40 30 -112 43 -34 6 -38 5 -38 -13z"></path><path id="p23DPeB1x" d="M3730 2920 c0 -33 3 -40 20 -40 17 0 20 7 20 40 0 33 -3 40 -20 40 -17 0 -20 -7 -20 -40z"></path><path id="peddSqec8" d="M3730 2825 c0 -28 4 -35 20 -35 16 0 20 7 20 35 0 28 -4 35 -20 35 -16 0 -20 -7 -20 -35z"></path><path id="pHVGQ9wEI" d="M4111 2843 c-1 -12 -5 -23 -11 -25 -5 -2 -6 -9 -1 -17 7 -10 21 -12 54 -7 37 6 46 11 49 31 4 20 0 25 -24 30 -16 4 -35 2 -42 -5 -11 -8 -15 -8 -19 2 -3 7 -6 3 -6 -9z"></path><path id="pfXSE23Vd" d="M4219 2814 c-40 -40 -89 -46 -138 -18 l-41 23 0 -29 c0 -25 5 -31 38 -39 51 -15 96 -14 137 3 31 13 35 19 35 50 0 20 -1 36 -3 36 -1 0 -14 -12 -28 -26z"></path><path id="p8KeOKLw5" d="M2522 2768 c3 -7 13 -15 22 -16 12 -3 17 1 14 10 -3 7 -13 15 -22 16 -12 3 -17 -1 -14 -10z"></path><path id="pxe8fb0ln" d="M4260 2760 c0 -5 -18 -15 -40 -21 -28 -9 -40 -18 -40 -31 0 -22 24 -23 63 -4 25 14 27 13 27 -3 0 -28 26 -46 45 -31 12 10 13 17 1 45 -10 24 -11 36 -3 44 8 8 2 11 -21 11 -18 0 -32 -4 -32 -10z"></path><path id="p14ekyQNWT" d="M3280 2721 c0 -16 9 -18 65 -19 58 -1 65 1 65 18 0 18 -7 20 -65 20 -57 0 -65 -2 -65 -19z"></path><path id="pr4pgZhmd" d="M3570 2720 c0 -11 3 -19 8 -19 34 6 72 -3 72 -16 0 -8 7 -15 15 -15 10 0 15 11 15 35 l0 35 -55 0 c-48 0 -55 -2 -55 -20z"></path><path id="pmOgRPZp9" d="M4100 2706 c0 -16 25 -24 53 -18 32 8 19 32 -18 32 -24 0 -35 -5 -35 -14z"></path><path id="pXG5WDeNe" d="M3455 2673 c-45 -3 -64 -8 -72 -22 -10 -15 -8 -21 12 -31 24 -13 46 -57 44 -89 0 -9 -6 2 -12 23 -7 21 -23 47 -37 56 -31 22 -80 34 -80 20 0 -5 6 -10 14 -10 8 0 18 -9 21 -20 3 -11 15 -20 25 -20 22 0 30 -19 30 -71 0 -42 14 -50 36 -21 12 16 13 15 14 -6 0 -12 6 -31 13 -42 10 -17 9 -22 -3 -30 -8 -5 -11 -13 -6 -17 5 -4 11 -2 13 5 3 6 13 12 24 12 12 0 26 15 40 42 12 23 37 65 56 94 29 44 33 57 27 89 -6 34 -9 37 -35 33 -16 -3 -29 -1 -29 4 0 4 -8 7 -17 6 -10 -1 -45 -3 -78 -5z"></path><path id="pPgU9T95y" d="M3650 2648 c0 -30 13 -58 26 -58 9 0 14 12 14 35 0 28 -4 35 -20 35 -11 0 -20 -6 -20 -12z"></path><path id="pDAtQme49" d="M2687 2643 c-4 -3 -7 -26 -7 -50 0 -32 4 -43 15 -43 10 0 15 -10 15 -30 0 -31 -23 -42 -34 -17 -3 6 -4 -21 -3 -61 l2 -72 -32 6 c-29 5 -33 3 -33 -14 0 -14 9 -22 30 -27 16 -4 51 -26 77 -49 45 -41 60 -69 89 -173 2 -7 10 -13 19 -13 8 0 15 -9 15 -20 0 -16 7 -20 36 -20 l37 0 -7 58 c-13 115 27 215 91 227 34 6 113 -12 113 -27 0 -4 -26 -8 -59 -8 -79 0 -86 -10 -86 -119 l0 -86 38 -3 c32 -3 37 0 37 18 0 20 1 20 22 6 12 -9 30 -16 40 -16 14 0 18 -8 18 -40 l0 -40 45 0 c43 0 44 1 51 36 9 49 -1 135 -20 173 -16 30 -16 31 4 31 13 0 20 7 20 19 0 31 28 51 71 51 44 0 53 -17 12 -22 l-28 -3 -3 -107 c-2 -92 0 -108 13 -108 8 0 15 5 15 12 0 16 79 139 104 162 15 13 17 20 9 23 -16 6 -17 73 -2 73 16 0 1 17 -20 23 -18 4 -19 0 -16 -52 2 -31 2 -45 -1 -31 -14 74 -10 70 -72 70 -67 0 -104 -16 -112 -48 l-5 -24 -29 27 c-35 32 -65 45 -131 55 -44 7 -46 8 -14 9 42 1 93 -14 129 -40 25 -17 26 -17 47 7 19 21 30 24 100 25 l78 1 -57 9 c-32 4 -67 13 -78 19 -11 6 -35 8 -54 5 -18 -4 -52 -2 -75 5 -60 16 -92 20 -211 25 -139 7 -192 14 -185 26 4 5 21 9 38 9 20 0 27 3 19 8 -20 13 -4 70 22 76 11 2 5 3 -14 1 -19 -1 -46 -6 -60 -11 -23 -7 -24 -6 -10 10 8 10 23 22 35 27 18 8 18 9 -5 6 -20 -2 -25 2 -24 21 1 22 -6 28 -19 15z m269 -268 c-11 -8 -25 -15 -30 -15 -6 0 -2 7 8 15 11 8 25 15 30 15 6 0 2 -7 -8 -15z m393 -109 c-13 -11 -49 -16 -49 -6 0 14 44 31 49 18 1 -5 1 -11 0 -12z"></path><path id="p11Ij3aapJ" d="M4260 2641 c0 -6 5 -11 10 -11 6 0 10 -4 10 -10 0 -5 -7 -10 -15 -10 -8 0 -15 -4 -15 -10 0 -5 -7 -10 -15 -10 -8 0 -15 -3 -15 -8 0 -4 -16 -16 -36 -27 -30 -16 -37 -17 -45 -4 -7 12 -9 11 -9 -3 0 -11 -11 -20 -27 -24 -37 -9 -99 -42 -114 -60 -6 -8 -21 -14 -33 -14 -12 0 -27 -5 -33 -11 -6 -6 -60 -15 -119 -21 -62 -6 -116 -17 -125 -25 -8 -7 -20 -13 -26 -13 -14 0 -23 -23 -25 -63 -1 -25 -2 -23 -7 13 l-6 45 -87 0 c-49 0 -89 -2 -89 -5 -2 -10 -2 -45 1 -85 2 -26 4 -32 7 -17 2 12 9 22 14 22 5 0 9 11 9 25 0 24 2 25 65 25 37 0 65 -4 65 -10 0 -5 -13 -10 -30 -10 -28 0 -30 -2 -29 -37 1 -23 3 -29 6 -16 3 17 10 22 26 19 12 -3 25 -5 30 -5 4 -1 7 -10 7 -20 0 -23 78 -151 91 -151 5 0 8 -3 7 -7 -3 -17 15 -43 31 -43 11 -1 7 -9 -16 -30 -18 -16 -33 -32 -33 -35 0 -3 16 -5 35 -5 49 0 55 22 55 186 0 112 -2 134 -15 134 -8 0 -15 -7 -15 -15 0 -8 -7 -15 -15 -15 -11 0 -15 12 -15 45 0 25 5 45 11 45 5 0 8 4 4 9 -7 12 58 17 138 13 80 -5 72 -18 -10 -14 -82 3 -113 -4 -113 -23 0 -12 15 -15 75 -15 43 0 75 -4 75 -10 0 -5 -11 -10 -24 -10 -30 0 -36 -27 -36 -176 l0 -114 35 0 c24 0 35 5 35 15 0 8 7 15 15 15 8 0 15 -9 15 -20 0 -16 7 -20 34 -20 l34 0 1 105 c1 104 3 115 44 180 6 11 12 21 12 21 0 1 24 5 53 9 44 6 52 4 52 -9 0 -11 -9 -16 -27 -16 -44 -1 -70 -30 -78 -88 -4 -28 -4 -65 0 -82 6 -26 11 -30 41 -30 32 0 34 2 34 35 0 48 33 68 115 69 l64 1 4 35 4 35 1 -37 c2 -31 6 -38 22 -38 22 0 25 21 14 79 -6 26 -11 31 -35 31 -16 0 -29 5 -29 10 0 6 16 10 35 10 24 0 35 5 35 15 0 15 -12 19 -65 17 -16 0 -22 2 -12 4 15 5 17 18 16 107 -2 124 -9 161 -32 165 -9 2 -17 -1 -17 -7z m-347 -368 c-8 -19 -43 -23 -43 -5 0 11 8 17 24 17 14 0 22 -5 19 -12z"></path><path id="pqfDHrpNO" d="M3272 2624 c-12 -22 -4 -54 14 -54 9 0 14 12 14 35 0 37 -13 46 -28 19z"></path><path id="pbV6osPFd" d="M3843 2533 c-25 -5 -31 -28 -9 -36 8 -3 22 -4 32 -2 11 2 22 4 26 4 3 1 4 10 1 21 -5 20 -9 21 -50 13z"></path><path id="p3wunsHxj" d="M2200 2453 c-80 -12 -90 -15 -90 -28 0 -10 11 -15 35 -15 19 0 35 3 35 8 0 4 20 6 45 4 36 -3 45 -1 45 12 0 9 -4 16 -9 16 -5 0 -15 2 -23 4 -7 2 -24 1 -38 -1z"></path><path id="pfjCokUWw" d="M1785 2374 c-77 -31 -159 -63 -182 -72 -40 -15 -43 -19 -43 -53 0 -34 3 -37 34 -42 19 -3 44 -14 55 -24 38 -35 50 -43 65 -43 8 0 18 -9 21 -20 3 -11 14 -20 24 -20 15 0 19 -11 24 -62 2 -35 12 -76 21 -93 9 -16 16 -35 16 -42 0 -6 6 -18 13 -25 6 -8 19 -27 27 -43 13 -25 23 -31 58 -33 41 -3 42 -4 42 -38 0 -19 5 -34 11 -34 6 0 17 -7 25 -15 9 -8 28 -15 44 -15 16 0 30 -4 32 -9 2 -5 41 -15 88 -21 85 -12 168 -7 201 10 13 8 25 2 51 -24 18 -18 44 -37 58 -41 14 -4 33 -13 43 -20 16 -11 16 -13 -3 -30 -25 -22 -29 -95 -5 -95 9 0 15 -9 15 -25 0 -24 3 -25 55 -25 30 0 55 5 55 10 0 6 7 10 15 10 11 0 15 12 15 45 0 25 5 45 10 45 6 0 10 9 10 20 0 11 7 20 15 20 13 0 15 28 15 196 l0 196 -42 -6 c-119 -18 -135 -18 -176 3 -53 27 -108 84 -123 128 -6 19 -12 60 -13 91 -1 53 1 58 27 69 21 9 27 19 27 43 0 21 -4 30 -12 28 -20 -7 -54 -63 -69 -113 -15 -50 -46 -66 -34 -18 3 15 10 30 13 33 4 3 7 11 8 18 2 28 5 32 20 32 13 0 14 3 5 14 -12 14 -135 40 -160 34 -8 -2 -16 2 -18 9 -2 7 7 15 21 19 35 8 34 34 -1 34 -43 0 -73 -11 -73 -26 0 -9 -11 -14 -28 -14 -31 0 -72 -36 -72 -63 0 -9 -4 -17 -9 -17 -23 0 -41 -71 -41 -163 0 -147 41 -224 145 -273 56 -27 176 -33 234 -13 18 6 34 9 37 6 9 -9 -69 -45 -121 -57 -60 -13 -175 -3 -175 16 0 8 -6 14 -14 14 -8 0 -16 7 -20 15 -3 9 -19 15 -41 15 -32 0 -35 3 -35 28 0 15 -11 39 -24 53 -36 39 -70 151 -63 214 6 58 45 150 80 186 48 51 63 116 17 74 -33 -30 -32 -11 1 23 l31 32 -43 -1 c-29 0 -93 -20 -184 -55z m365 -54 c0 -5 -16 -16 -35 -24 -19 -8 -46 -27 -60 -42 -14 -15 -27 -25 -30 -22 -3 3 17 26 44 51 47 44 81 60 81 37z m530 -416 c0 -9 -11 -14 -35 -14 -36 0 -49 16 -17 22 38 8 52 6 52 -8z m-90 -15 c0 -5 -11 -9 -25 -9 -24 0 -32 10 -19 22 8 8 44 -3 44 -13z"></path><path id="p15PNMWEb4" d="M4960 2403 c0 -18 13 -65 29 -105 16 -40 41 -114 56 -163 48 -162 49 -165 103 -165 31 0 32 2 32 40 0 22 -5 40 -11 40 -5 0 2 11 17 25 15 14 35 25 45 25 11 0 19 5 19 11 0 16 31 38 53 39 9 0 17 5 17 10 0 17 39 50 60 50 16 0 20 7 20 34 0 18 -6 38 -12 43 -7 5 -62 29 -123 52 -60 24 -114 50 -118 57 -4 8 -17 14 -27 14 -10 0 -22 5 -25 10 -3 6 -29 10 -57 10 -40 0 -49 -3 -44 -15 7 -20 -4 -19 -20 3 -12 15 -13 14 -14 -15z"></path><path id="p10JSZMq19" d="M3530 2400 c-10 -7 8 -10 59 -10 41 0 72 2 70 4 -11 9 -116 14 -129 6z"></path><path id="pT8Am9rwN" d="M4770 2385 c-19 -13 -43 -31 -52 -41 -10 -9 -26 -22 -36 -28 -11 -6 -38 -24 -62 -41 -24 -16 -50 -34 -59 -40 -89 -55 -91 -57 -91 -86 0 -36 23 -84 47 -98 10 -6 13 -11 6 -11 -23 0 -63 66 -72 121 -5 30 -9 44 -10 32 0 -13 -5 -23 -11 -23 -5 0 -10 -16 -10 -35 0 -19 5 -35 10 -35 6 0 10 -10 10 -22 0 -14 13 -32 33 -45 l32 -23 -27 0 c-22 0 -26 -3 -21 -17 4 -10 15 -25 26 -33 18 -15 18 -16 -6 -18 -21 -1 -26 4 -31 33 -8 42 -33 47 -38 8 -3 -27 -6 -28 -60 -31 l-58 -3 0 -133 c0 -73 3 -174 6 -224 7 -88 8 -92 30 -92 19 0 24 -5 24 -25 0 -16 6 -25 15 -25 8 0 15 -7 15 -15 0 -11 12 -15 45 -15 33 0 45 4 45 15 0 9 9 15 25 15 23 0 25 4 25 45 0 33 -4 45 -15 45 -8 0 -15 9 -15 19 0 11 -8 21 -17 24 -13 2 -8 8 20 22 20 10 37 23 37 27 0 5 14 14 30 19 17 6 30 15 30 19 0 5 15 13 34 20 18 6 52 31 75 55 23 25 51 45 62 45 10 0 19 7 19 15 0 9 12 18 30 22 17 3 30 9 30 14 0 5 7 9 15 9 8 0 20 8 27 19 11 18 12 18 32 -1 19 -18 32 -19 120 -16 66 3 101 8 104 16 2 7 12 12 23 12 15 0 19 7 19 36 l0 37 -78 -7 c-76 -7 -112 -2 -112 14 0 5 10 10 23 12 20 3 22 8 20 58 -2 68 -37 206 -57 225 -23 23 -37 18 -30 -10 5 -20 2 -25 -12 -25 -14 0 -16 2 -6 9 10 6 9 10 -7 14 -27 7 -27 27 -1 34 20 5 29 33 10 33 -5 0 -10 16 -10 35 0 25 -4 35 -16 35 -10 0 -14 -6 -11 -14 4 -11 -9 -20 -45 -32 -62 -20 -118 -74 -144 -137 -19 -48 -52 -68 -38 -24 20 65 72 126 134 157 25 12 46 24 48 25 7 6 -22 55 -32 55 -6 -1 -27 -12 -46 -25z m60 -119 c0 -7 -11 -25 -24 -39 -30 -33 -49 -113 -44 -192 3 -53 5 -60 26 -63 23 -4 31 -21 10 -23 -29 -2 -103 3 -108 8 -3 2 3 9 13 14 13 8 17 24 18 77 1 37 4 92 7 122 6 47 10 55 30 58 12 2 30 14 40 27 19 27 32 32 32 11z m14 -60 c-9 -15 -19 -24 -22 -22 -2 3 3 17 12 32 10 14 20 23 23 21 2 -3 -3 -17 -13 -31z m-159 -103 c-2 -10 -4 -24 -4 -30 -1 -7 -8 -13 -16 -13 -22 0 -19 47 3 53 9 3 18 5 19 6 1 0 0 -7 -2 -16z m-85 -73 c13 -9 13 -10 0 -10 -8 0 -22 5 -30 10 -13 9 -13 10 0 10 8 0 22 -5 30 -10z m-37 -40 c10 0 17 -8 17 -20 0 -24 0 -24 -45 -3 -39 19 -48 39 -12 29 12 -3 30 -6 40 -6z m93 -16 c-3 -9 -6 -20 -6 -25 0 -5 -7 -9 -15 -9 -9 0 -15 9 -15 25 0 19 5 25 21 25 15 0 19 -4 15 -16z m-263 -71 c-3 -7 -8 -13 -12 -14 -45 -6 -51 -4 -51 11 0 13 8 17 34 16 22 -1 32 -5 29 -13z"></path><path id="pwnTEb31L" d="M2250 2367 c0 -8 16 -19 36 -25 30 -9 38 -8 54 8 17 17 17 18 -12 24 -49 10 -78 7 -78 -7z"></path><path id="pZ4RrTTbU" d="M2414 2215 c-3 -20 -4 -64 -2 -99 3 -55 8 -67 33 -90 17 -14 40 -29 53 -32 12 -3 22 -10 22 -15 0 -5 19 -9 43 -9 121 0 177 56 177 175 0 67 -7 85 -32 85 -14 0 -18 -5 -14 -16 4 -11 -1 -18 -14 -21 -15 -4 -20 -14 -20 -38 0 -18 6 -35 12 -37 9 -3 7 -10 -6 -24 -18 -17 -18 -19 -3 -22 26 -5 21 -15 -23 -43 -34 -22 -46 -25 -85 -19 -32 5 -55 16 -73 35 l-27 28 33 -26 c26 -21 44 -27 80 -27 26 0 54 5 62 10 8 5 11 10 5 10 -5 0 -4 4 3 9 24 15 -6 55 -69 89 -32 18 -59 37 -59 43 0 6 -10 9 -22 7 -14 -2 -26 -15 -34 -38 l-12 -35 -1 30 c-1 17 8 47 18 68 l19 37 -29 0 c-24 0 -29 -5 -35 -35z"></path><path id="p19Sz8tshH" d="M3150 1966 c0 -7 -11 -22 -25 -32 -14 -10 -25 -22 -25 -25 0 -4 -40 -66 -90 -137 -49 -71 -90 -137 -90 -146 0 -9 -6 -16 -14 -16 -16 0 -66 -80 -66 -104 0 -10 -9 -16 -25 -16 -22 0 -25 -4 -25 -35 0 -19 -4 -35 -10 -35 -5 0 -10 -13 -10 -30 0 -20 -5 -30 -15 -30 -11 0 -15 -11 -15 -39 0 -34 4 -40 26 -45 15 -4 51 -4 80 0 50 6 54 5 54 -15 0 -18 6 -21 40 -21 37 0 40 2 40 29 0 35 26 49 34 18 3 -12 6 -32 6 -44 0 -20 5 -23 45 -23 41 0 45 2 45 24 0 18 7 25 31 30 48 9 49 9 49 -34 0 -39 1 -40 35 -40 29 0 36 4 41 25 4 18 13 25 30 25 20 0 24 -5 24 -30 0 -29 2 -30 44 -30 44 0 56 10 56 47 0 17 24 43 39 43 15 0 31 35 31 69 0 17 5 31 10 31 6 0 10 -11 10 -25 0 -21 5 -25 30 -25 25 0 30 -4 30 -25 0 -25 1 -25 79 -25 61 0 80 -3 85 -15 3 -8 12 -15 21 -15 8 0 15 -4 15 -10 0 -5 16 -10 35 -10 31 0 35 3 35 25 0 18 5 25 20 25 13 0 20 -7 20 -20 0 -17 7 -20 45 -20 38 0 45 3 45 20 0 11 7 20 15 20 9 0 15 -9 15 -25 0 -22 4 -25 39 -25 32 0 41 4 46 21 6 19 12 21 57 15 27 -4 70 -4 94 0 l44 6 0 44 c0 24 -4 44 -10 44 -5 0 -10 7 -10 15 0 25 -42 75 -62 75 -13 0 -18 8 -18 25 0 30 -67 135 -86 135 -8 0 -14 8 -14 18 0 19 -115 194 -132 200 -4 2 -8 9 -8 15 0 7 -10 24 -23 39 -12 14 -30 36 -39 47 -10 12 -18 28 -18 36 0 21 -68 21 -76 0 -4 -8 -15 -15 -25 -15 -12 0 -19 -7 -19 -20 0 -24 20 -26 59 -5 27 14 41 11 41 -7 0 -4 -5 -8 -12 -8 -6 0 -19 -7 -29 -16 -25 -22 -125 -29 -175 -12 -29 11 -45 11 -57 4 -13 -8 -20 -8 -25 1 -5 8 -13 9 -22 3 -22 -14 -155 -12 -186 2 -22 10 -28 10 -32 0 -4 -14 -128 -17 -137 -2 -3 5 -3 21 1 35 5 20 9 24 18 14 8 -8 8 -13 -1 -16 -18 -6 -16 -23 2 -23 8 0 15 5 15 10 0 6 7 10 16 10 12 0 15 6 10 23 -3 12 -6 25 -6 30 0 14 -70 8 -70 -7z m280 -315 c0 -14 -5 -18 -20 -14 -16 4 -18 8 -9 19 16 20 29 17 29 -5z"></path><path id="p6emhEagG" d="M3270 1945 c0 -14 6 -25 13 -25 20 0 25 9 20 31 -8 28 -33 24 -33 -6z"></path><path id="p14VrnJ2sC" d="M3367 1949 c-7 -26 8 -32 90 -33 46 0 67 4 73 14 18 27 10 30 -60 24 -50 -5 -70 -4 -70 5 0 20 -27 12 -33 -10z"></path><path id="pK8rNye6o" d="M3610 1941 c0 -9 24 -22 53 -27 11 -3 17 2 17 16 0 16 -7 20 -35 20 -19 0 -35 -4 -35 -9z"></path></g></g><g id="lJ2F1liHLWSIDtoeJP8o4e" fill="rgb(250,162,26)" style="transform: none;"><g><path id="pqdmbw6if" d="M400 3420 c-43 -54 -113 -192 -102 -199 5 -3 17 -22 28 -41 10 -19 24 -42 31 -50 7 -9 19 -43 26 -76 8 -34 22 -72 30 -85 9 -13 21 -46 28 -74 6 -27 20 -65 30 -83 11 -20 19 -53 19 -81 0 -44 3 -49 25 -55 21 -5 25 -12 25 -46 0 -32 5 -42 30 -60 24 -17 30 -29 30 -59 0 -22 6 -44 15 -51 8 -7 15 -23 15 -36 0 -13 5 -24 10 -24 6 0 10 -13 10 -29 0 -16 6 -31 15 -35 9 -3 15 -19 15 -41 0 -19 5 -35 10 -35 6 0 10 -7 10 -15 0 -8 -9 -15 -20 -15 -62 0 46 -59 170 -92 142 -38 437 -24 428 20 -2 10 -20 20 -43 26 -49 11 -55 19 -55 74 0 35 -3 42 -20 42 -16 0 -20 7 -20 30 0 18 -6 33 -15 36 -9 4 -15 19 -15 38 0 20 -7 35 -20 44 -13 8 -20 23 -20 42 0 18 -6 33 -15 36 -9 4 -15 19 -15 40 0 19 -4 34 -10 34 -5 0 -10 18 -10 40 0 29 -4 40 -15 40 -8 0 -15 7 -15 15 0 8 -4 15 -10 15 -5 0 -10 11 -10 25 0 14 -4 25 -10 25 -14 0 -31 72 -33 148 -2 59 -5 68 -24 77 -13 5 -23 14 -23 18 0 5 -11 18 -24 28 -17 14 -26 33 -31 69 -4 29 -13 54 -22 59 -18 10 -43 75 -43 114 0 15 -4 27 -9 27 -4 0 -15 21 -23 48 -15 44 -15 47 3 54 12 5 19 17 19 33 l0 25 -159 0 -159 0 -32 -40z"></path><path id="pD86CatNF" d="M6240 3435 c0 -14 4 -25 9 -25 20 0 17 -60 -6 -101 -13 -24 -23 -52 -23 -62 0 -11 -13 -47 -29 -81 -16 -33 -32 -74 -35 -90 -4 -17 -15 -37 -25 -45 -10 -9 -21 -38 -24 -65 -4 -28 -11 -52 -16 -55 -4 -4 -11 -19 -15 -36 -4 -16 -18 -44 -30 -60 -13 -17 -27 -45 -30 -63 -4 -17 -13 -32 -21 -32 -8 0 -14 -19 -17 -57 -5 -63 -45 -162 -65 -163 -8 0 -13 -13 -13 -31 0 -47 -30 -153 -46 -162 -8 -4 -14 -15 -14 -24 0 -9 -5 -33 -12 -54 -9 -30 -16 -39 -33 -39 -49 0 -86 -13 -83 -28 5 -27 94 -44 233 -45 134 -1 218 14 313 54 43 19 56 39 25 39 -13 0 -14 3 -5 12 7 7 12 20 12 29 0 22 31 81 48 92 6 4 12 23 12 42 0 18 6 46 14 62 8 15 20 48 27 73 7 25 19 52 26 61 7 8 13 21 13 27 0 6 14 40 30 75 17 36 30 72 30 81 0 8 5 18 10 21 6 3 10 17 10 31 0 14 6 24 14 24 13 0 16 9 34 101 4 25 18 60 30 76 12 17 22 38 22 47 0 29 23 66 42 66 14 0 18 8 18 35 0 24 5 35 15 35 10 0 15 11 15 35 0 19 -4 35 -10 35 -5 0 -10 8 -10 19 0 10 -22 53 -50 95 l-50 76 -170 0 -170 0 0 -25z"></path><path id="pxJz2n32e" d="M1810 2855 c0 -8 -4 -15 -10 -15 -5 0 -10 -6 -10 -14 0 -8 -7 -16 -15 -20 -8 -3 -15 -12 -15 -21 0 -8 -4 -15 -10 -15 -5 0 -10 -6 -10 -14 0 -8 -4 -16 -8 -18 -11 -4 -52 -73 -52 -87 0 -7 30 -44 68 -82 37 -38 72 -80 77 -92 6 -12 22 -35 38 -51 15 -16 27 -35 27 -42 0 -10 7 -10 35 2 19 8 35 11 35 8 0 -4 6 -2 13 4 7 6 49 24 92 40 62 23 81 34 83 51 3 16 -2 21 -18 21 -21 0 -59 35 -60 55 0 6 -15 27 -33 47 -104 118 -164 195 -179 229 -13 30 -48 41 -48 14z"></path><path id="pz5MYa1rS" d="M5133 2848 c-6 -7 -14 -23 -17 -35 -4 -13 -34 -50 -66 -84 -127 -132 -161 -208 -128 -286 13 -31 46 -62 66 -63 9 0 8 7 -4 25 -20 30 -11 32 17 4 12 -12 29 -19 40 -16 11 3 23 -1 28 -10 7 -13 15 -6 42 32 19 26 55 70 81 97 26 28 62 72 80 99 18 27 39 49 46 49 9 0 6 10 -9 33 -13 17 -26 34 -29 37 -3 3 -19 26 -35 52 -17 27 -36 48 -42 48 -7 0 -12 6 -10 13 3 17 -47 21 -60 5z"></path><path id="pb7COb4xO" d="M2038 2410 c-73 -38 -84 -56 -18 -30 28 11 64 20 80 20 23 0 30 4 30 20 0 28 -24 25 -92 -10z"></path><path id="pZDw4JJps" d="M5430 2231 l0 -41 46 0 45 0 -3 38 c-3 36 -4 37 -45 40 l-43 3 0 -40z"></path><path id="p1DbgtYfT7" d="M1306 2194 c-10 -27 -7 -44 8 -38 8 3 -4 -30 -29 -80 -23 -46 -50 -115 -60 -153 -23 -87 -32 -297 -16 -369 12 -51 14 -54 43 -54 20 0 39 -9 58 -30 15 -16 34 -30 40 -30 7 0 43 -25 81 -55 37 -30 75 -55 85 -55 15 0 68 -38 149 -105 16 -14 34 -25 40 -25 6 0 21 -11 33 -25 12 -14 31 -25 42 -25 10 0 24 -9 30 -20 6 -11 17 -20 24 -20 7 0 21 -9 32 -21 10 -11 40 -32 66 -47 26 -15 48 -30 48 -34 0 -5 8 -8 18 -8 26 0 92 -64 92 -89 0 -26 4 -26 109 -1 105 25 227 82 308 144 62 47 163 152 163 169 0 4 -17 7 -37 5 -32 -3 -38 -7 -41 -28 -3 -23 -6 -25 -40 -22 -42 5 -62 22 -62 53 0 20 -4 21 -44 17 -40 -5 -45 -3 -48 16 -2 14 -11 22 -29 24 -15 2 -35 12 -45 23 -9 10 -27 19 -40 19 -16 0 -24 7 -26 23 -2 16 -13 24 -40 31 -33 8 -37 13 -40 45 -3 36 -3 36 -49 36 -41 0 -94 18 -109 36 -3 3 -15 11 -27 18 -13 6 -23 21 -23 31 0 11 -4 20 -10 20 -5 0 -10 12 -10 26 0 26 -2 26 -44 22 -29 -4 -46 -1 -49 6 -3 7 -23 18 -45 24 -29 9 -42 19 -46 37 -5 18 -13 25 -31 25 -13 0 -28 6 -32 13 -4 6 -21 19 -38 27 -16 8 -40 25 -52 37 -13 12 -40 30 -60 40 -21 9 -46 28 -56 40 -10 13 -25 23 -33 23 -9 0 -14 11 -14 30 0 29 -1 30 -50 30 -27 0 -50 5 -50 10 0 6 -7 10 -15 10 -10 0 -15 10 -15 29 0 16 -3 36 -6 45 -4 11 -1 16 10 16 11 0 16 9 16 30 0 23 4 30 20 30 17 0 20 7 20 45 0 44 0 45 -34 45 -22 0 -36 -6 -40 -16z"></path><path id="ptxp3tY3B" d="M4300 2125 c0 -8 -9 -15 -19 -15 -11 0 -21 -8 -23 -17 -2 -10 -22 -24 -48 -33 -42 -14 -45 -18 -48 -55 -4 -45 -24 -64 -69 -65 -33 0 -33 0 -33 -51 0 -56 -13 -89 -35 -89 -11 0 -15 13 -15 55 l0 55 -43 0 c-31 0 -49 6 -62 20 -24 26 -81 28 -70 3 4 -10 8 -23 8 -30 0 -7 7 -15 14 -17 8 -3 11 -10 8 -16 -3 -5 0 -10 7 -10 16 0 41 -37 33 -50 -4 -6 0 -10 7 -10 7 0 28 -23 47 -50 29 -44 38 -50 68 -50 41 0 87 24 103 55 15 28 133 70 138 49 2 -8 14 -14 28 -14 23 0 24 3 24 65 0 53 3 65 16 65 23 0 11 24 -14 28 -30 5 -28 22 3 22 23 0 25 4 25 45 0 25 5 45 10 45 6 0 10 18 10 40 0 33 -3 40 -20 40 -17 0 -20 -8 -23 -67 l-3 -68 -2 68 c-1 37 -6 67 -12 67 -5 0 -10 -7 -10 -15z"></path><path id="pjEoBgvrr" d="M5663 2133 c-15 -6 -18 -73 -3 -73 6 0 10 -7 10 -15 0 -8 -7 -15 -15 -15 -10 0 -15 -10 -15 -28 0 -32 -21 -55 -63 -71 -15 -6 -27 -16 -27 -24 0 -25 -62 -52 -112 -48 -48 3 -48 3 -48 -29 0 -37 -27 -68 -90 -101 -25 -13 -49 -30 -53 -37 -5 -8 -28 -22 -50 -33 -59 -26 -78 -40 -106 -71 -15 -18 -34 -28 -52 -28 -15 0 -31 -4 -34 -10 -3 -5 -15 -10 -26 -10 -13 0 -19 -7 -19 -24 0 -22 -5 -25 -55 -31 -36 -5 -55 -12 -55 -21 0 -48 -55 -84 -130 -84 -23 0 -30 -4 -30 -20 0 -11 -6 -20 -14 -20 -9 0 -16 -12 -18 -27 -2 -18 -10 -29 -23 -32 -11 -2 -29 -14 -40 -26 -37 -41 -75 -59 -121 -56 -25 1 -44 -2 -44 -9 0 -5 -15 -10 -32 -10 l-33 -1 77 -73 c82 -78 204 -150 307 -180 81 -24 114 -21 151 14 18 17 38 30 45 30 8 0 20 6 28 14 8 8 32 16 53 18 34 3 39 6 42 31 2 16 11 31 20 34 9 3 40 25 68 49 28 24 64 46 80 50 16 4 37 18 47 31 10 13 24 23 30 23 7 0 37 20 67 45 30 25 64 45 75 45 11 0 25 10 30 23 6 12 20 23 31 25 12 2 30 12 40 23 9 10 27 19 38 19 16 0 25 9 31 32 8 25 18 34 45 41 19 5 46 19 61 33 14 13 30 24 37 24 22 0 35 46 40 140 7 151 -20 284 -83 404 -31 60 -40 68 -62 59z"></path><path id="p6kjLuWLC" d="M2840 2045 c0 -10 -10 -15 -34 -15 -19 0 -38 -4 -41 -10 -3 -5 -15 -10 -27 -10 -11 0 -22 -8 -25 -19 -3 -12 -17 -23 -34 -26 -20 -5 -29 -13 -29 -27 0 -13 5 -18 14 -15 12 5 16 -5 18 -45 l3 -51 60 -14 c81 -18 122 -31 172 -54 24 -10 52 -19 63 -19 11 0 20 -4 20 -10 0 -28 30 -3 75 62 28 40 52 77 54 82 2 6 12 19 23 30 10 11 18 22 18 25 0 21 -183 51 -194 32 -4 -6 -20 -11 -37 -11 -29 0 -29 1 -29 55 l0 55 -35 0 c-24 0 -35 -5 -35 -15z"></path><path id="pA0dCXsQI" d="M2690 1139 c0 -5 7 -42 16 -82 32 -141 139 -328 237 -412 33 -28 49 -35 84 -35 32 0 43 4 43 15 0 13 53 15 420 15 359 0 420 -2 420 -14 0 -10 16 -17 45 -22 53 -8 75 -1 82 26 3 11 11 20 18 20 21 0 112 106 153 178 44 76 77 156 92 222 15 68 14 70 -25 70 -19 0 -35 -5 -35 -11 0 -7 -12 -22 -27 -35 l-28 -24 -675 0 c-371 0 -685 3 -697 6 -14 4 -23 14 -23 25 0 12 -7 19 -20 19 -12 0 -25 10 -32 25 -11 24 -48 35 -48 14z"></path></g></g><g id="l1e23wL9aX5i1RPfAkN9FJx" fill="rgb(255,176,1)" style="transform: none;"><g><path id="pS9WVuCBI" d="M716 3445 c-3 -8 -15 -15 -26 -15 -15 0 -20 -7 -20 -29 0 -17 5 -33 11 -37 8 -5 8 -8 0 -13 -8 -5 -5 -15 9 -31 11 -13 20 -32 20 -42 0 -11 5 -16 11 -12 6 4 9 -1 8 -12 -5 -30 24 -115 43 -125 10 -5 19 -28 23 -59 5 -37 14 -55 33 -71 22 -17 24 -23 15 -39 -10 -14 -9 -21 2 -30 8 -7 15 -19 15 -27 0 -8 4 -12 9 -9 12 8 31 -40 20 -51 -5 -5 -3 -19 5 -34 7 -14 16 -37 20 -52 3 -15 11 -27 16 -27 6 0 10 -14 10 -31 0 -17 4 -28 10 -24 6 3 10 -1 10 -9 0 -9 7 -16 16 -16 13 0 14 -3 5 -14 -13 -16 0 -53 23 -68 7 -5 6 -8 -3 -8 -12 0 -12 -3 -3 -12 7 -7 12 -20 12 -29 0 -9 6 -19 13 -22 9 -3 12 -16 9 -36 -2 -17 0 -31 4 -31 5 0 18 -7 29 -16 17 -13 18 -16 5 -25 -11 -8 -12 -12 -2 -16 6 -2 12 -11 12 -18 0 -7 7 -16 16 -19 11 -4 13 -10 6 -22 -5 -9 -7 -25 -5 -34 6 -21 40 -33 47 -16 2 6 5 4 5 -5 1 -9 -7 -20 -16 -23 -15 -6 -15 -8 -3 -16 8 -6 11 -10 6 -10 -5 0 -1 -9 10 -21 14 -16 15 -22 5 -28 -10 -7 -10 -10 -1 -16 7 -4 15 -2 19 4 5 7 20 9 42 4 l34 -7 -40 -12 c-22 -7 -34 -13 -26 -13 25 -2 156 41 163 53 5 7 8 5 8 -6 0 -10 -6 -18 -14 -18 -15 0 -30 -27 -27 -49 1 -7 -2 -10 -8 -7 -13 8 -25 -36 -19 -69 3 -14 1 -25 -3 -25 -5 0 -9 -7 -9 -15 0 -8 5 -15 11 -15 5 0 7 -5 4 -10 -3 -6 2 -13 12 -17 10 -4 27 -15 37 -25 14 -13 22 -15 27 -7 4 8 13 2 24 -15 10 -14 28 -29 41 -32 14 -4 32 -16 42 -28 9 -12 34 -30 55 -39 20 -10 48 -29 62 -42 13 -14 29 -25 35 -25 6 0 13 -7 17 -16 3 -8 12 -13 20 -10 8 3 12 2 9 -3 -7 -11 23 -25 46 -22 11 1 20 -7 24 -23 4 -18 17 -29 42 -37 21 -6 57 -32 81 -58 25 -25 47 -44 50 -43 3 2 11 8 18 13 8 7 10 5 6 -9 -3 -14 3 -22 26 -32 17 -7 31 -15 31 -19 0 -3 14 -12 32 -20 17 -8 39 -22 50 -33 10 -10 18 -15 18 -12 0 3 17 -8 37 -25 20 -16 40 -28 45 -25 5 4 16 -2 23 -12 9 -12 14 -14 15 -6 0 7 5 10 10 7 6 -4 8 -15 5 -26 -5 -15 -1 -19 21 -19 15 0 41 -13 62 -31 21 -19 38 -27 40 -20 2 6 8 8 13 5 6 -3 6 -11 -2 -20 -9 -11 -6 -16 17 -24 16 -6 36 -9 46 -7 9 3 16 0 15 -6 -1 -6 8 -16 21 -22 12 -5 22 -13 22 -16 0 -4 -10 -5 -22 -3 -17 3 -15 1 7 -10 37 -19 57 -20 73 -4 9 9 12 8 12 -7 0 -15 3 -16 12 -7 7 7 19 12 28 12 24 0 56 36 38 43 -8 3 -2 9 14 16 16 6 28 15 28 21 0 5 4 10 9 10 5 0 11 -26 14 -58 4 -57 39 -167 49 -156 3 3 336 5 739 4 l734 0 28 24 c15 13 27 29 27 36 0 7 8 10 19 7 18 -4 20 3 27 70 l7 75 36 -39 c39 -44 111 -99 111 -86 0 4 14 14 31 22 16 7 28 16 25 19 -3 3 17 18 44 34 28 16 50 33 50 38 0 5 6 7 13 5 6 -3 26 8 44 25 18 16 39 30 47 30 9 0 16 5 16 10 0 6 13 18 30 29 16 10 27 20 24 24 -8 8 35 29 46 22 6 -3 15 5 22 19 7 17 19 26 34 26 25 0 57 27 49 41 -4 5 5 9 18 9 31 0 51 22 35 38 -9 9 -7 12 9 12 12 0 25 5 28 10 4 6 15 8 26 5 12 -4 27 2 43 18 14 14 27 22 30 19 3 -3 6 1 6 9 0 8 8 19 19 24 10 6 44 23 75 39 32 15 55 30 52 33 -3 3 16 17 42 30 26 14 54 33 62 42 9 10 21 16 29 13 9 -3 11 2 6 17 -5 15 -2 21 10 21 9 0 37 12 63 27 26 14 56 31 68 37 11 6 19 17 17 23 -3 7 11 19 29 28 18 9 45 22 59 30 27 15 44 54 40 88 -1 9 4 17 11 18 7 0 4 4 -7 9 -11 5 -14 9 -7 9 6 1 12 10 12 20 0 15 -5 18 -22 14 -18 -4 -20 -3 -8 6 12 9 13 14 3 31 -18 28 -16 31 11 20 13 -5 34 -6 46 -3 16 4 21 3 16 -5 -4 -7 -2 -12 3 -12 6 0 11 8 11 18 0 9 4 13 8 7 10 -14 59 -16 59 -2 2 28 30 119 39 125 13 9 25 38 31 77 2 17 13 47 24 68 10 21 19 44 19 53 0 8 11 35 25 60 14 24 25 46 25 49 0 3 0 8 1 13 1 4 0 17 -1 30 -1 12 4 22 11 22 10 0 10 3 1 12 -17 17 -15 27 6 23 14 -2 18 4 19 30 1 20 12 48 27 68 14 18 29 48 32 65 4 18 10 32 14 32 9 0 25 68 21 88 -1 8 7 22 18 31 12 10 21 23 21 30 0 6 5 11 11 11 6 0 8 7 5 16 -3 9 8 45 25 80 16 36 31 73 32 84 1 11 4 20 8 20 4 0 6 6 6 13 -1 6 9 33 21 59 17 36 20 53 13 66 -7 13 -7 22 1 30 13 13 2 32 -18 32 -8 0 -14 5 -14 10 0 6 -82 10 -225 10 -218 0 -225 -1 -225 -20 0 -21 24 -27 36 -9 5 8 8 8 13 0 4 -6 -5 -37 -21 -69 -15 -31 -28 -64 -28 -72 0 -8 -11 -35 -25 -59 -14 -23 -25 -49 -25 -56 0 -7 -6 -18 -13 -24 -8 -6 -13 -26 -12 -46 0 -23 -7 -44 -22 -62 -13 -14 -23 -34 -23 -43 0 -10 -6 -23 -14 -29 -7 -6 -16 -30 -19 -52 -5 -36 -30 -97 -74 -181 -7 -15 -14 -31 -13 -35 0 -19 -34 -110 -52 -135 -11 -16 -17 -32 -14 -37 3 -5 -3 -20 -14 -32 l-19 -24 -1 23 c0 12 4 22 9 22 4 0 6 12 3 26 -3 18 -7 22 -13 13 -4 -7 -5 -17 -2 -21 2 -5 -1 -15 -7 -23 -10 -12 -9 -20 5 -41 9 -14 14 -28 12 -31 -3 -2 -17 13 -31 34 -25 35 -26 36 -26 12 0 -14 7 -34 15 -45 8 -10 15 -25 15 -33 0 -7 25 -49 55 -92 l55 -78 -33 11 c-17 5 -47 17 -65 25 -35 15 -194 76 -323 123 -67 24 -79 26 -91 14 -11 -12 -21 -13 -44 -4 -27 10 -28 9 -9 -5 11 -9 28 -14 38 -11 9 2 21 -3 26 -11 5 -10 15 -14 24 -10 9 3 20 0 24 -7 5 -7 51 -31 103 -51 52 -21 96 -42 98 -46 2 -4 9 -6 16 -3 7 3 19 -2 26 -11 11 -13 9 -15 -9 -15 -22 0 -61 -32 -61 -50 0 -5 -8 -10 -17 -10 -22 -1 -53 -23 -53 -39 0 -6 -9 -11 -20 -11 -10 0 -28 -9 -39 -21 -18 -19 -48 -19 -36 1 3 5 1 11 -3 14 -5 3 -8 -5 -7 -17 1 -12 3 -32 4 -44 0 -12 8 -29 17 -38 18 -17 16 -28 -3 -17 -6 4 -20 34 -31 67 l-21 60 0 -67 c-1 -79 5 -98 30 -98 10 0 19 -4 19 -10 0 -6 -28 -10 -65 -10 -58 0 -65 2 -65 20 0 13 7 20 20 20 22 0 25 16 14 83 -5 28 -11 37 -26 37 -18 0 -19 -5 -13 -42 4 -24 8 -47 9 -53 0 -5 -8 -10 -19 -10 -16 0 -21 -8 -23 -39 -4 -49 6 -56 86 -56 34 0 62 -4 62 -10 0 -5 -8 -10 -17 -11 -10 0 -43 -1 -73 -3 -56 -2 -90 9 -90 31 0 7 -10 10 -24 7 -17 -3 -28 2 -35 13 -9 16 -10 15 -11 -8 0 -30 -17 -49 -43 -49 -10 0 -15 -5 -12 -10 3 -6 1 -10 -4 -10 -6 0 -11 6 -11 13 0 6 -5 4 -11 -6 -6 -9 -14 -15 -20 -12 -8 6 -13 -8 -10 -27 0 -5 -8 -8 -18 -8 -11 0 -39 -20 -62 -45 -23 -24 -57 -49 -75 -55 -19 -7 -34 -15 -34 -20 0 -4 -14 -13 -30 -19 -17 -5 -30 -14 -30 -20 0 -5 -9 -13 -20 -16 -11 -4 -32 -17 -48 -29 -33 -28 -69 -38 -79 -23 -5 7 -11 -5 -14 -28 -5 -36 -6 -33 -9 25 -2 36 -4 70 -5 75 -2 6 -3 18 -4 28 0 9 -8 17 -16 17 -13 0 -15 -27 -15 -180 l0 -179 -30 5 c-17 4 -36 1 -44 -5 -11 -9 -16 -5 -25 20 -6 18 -11 45 -11 60 0 22 -5 29 -20 29 -23 0 -24 -7 -6 -75 14 -53 13 -65 -8 -65 -7 0 -18 23 -25 50 -7 28 -17 50 -23 50 -5 0 -7 12 -4 27 10 46 -6 59 -51 44 -21 -7 -43 -11 -48 -10 -6 1 -28 -3 -50 -9 -58 -17 -160 -16 -175 3 -10 12 -10 15 4 15 9 0 16 4 16 9 0 4 -16 3 -35 -3 -37 -11 -50 -28 -15 -19 11 3 20 0 20 -6 0 -8 -51 -11 -177 -12 -344 0 -502 3 -538 9 -5 1 -3 7 5 12 13 9 13 10 0 10 -8 0 -25 -3 -37 -6 l-23 -6 20 -25 c11 -14 20 -33 20 -42 -1 -33 -82 -103 -94 -82 -4 5 9 19 28 30 46 29 59 46 51 71 -10 30 -39 42 -69 29 -14 -7 -27 -18 -30 -25 -8 -21 13 -28 33 -10 17 15 31 13 31 -6 0 -7 -74 -58 -85 -58 -3 0 -1 9 5 20 8 16 8 20 -4 20 -13 0 -17 18 -18 98 0 34 -44 31 -52 -4 -7 -26 -3 -38 15 -40 5 -1 14 -2 19 -3 6 0 10 -8 10 -16 0 -22 -50 -20 -51 3 0 10 -5 5 -11 -13 -14 -38 -32 -55 -57 -55 -11 0 -25 -8 -30 -17 -7 -13 -10 24 -11 130 0 124 -2 147 -15 147 -8 0 -15 -7 -15 -15 0 -8 -7 -15 -15 -15 -8 0 -15 -9 -15 -20 0 -18 -3 -19 -22 -9 -13 7 -25 15 -28 19 -6 9 -102 60 -113 60 -5 0 -26 17 -48 38 -30 30 -36 41 -26 51 6 7 -14 1 -45 -13 -58 -26 -96 -32 -176 -28 -65 3 -42 18 37 25 74 6 159 37 187 68 17 18 16 19 -19 19 -25 0 -37 -5 -37 -14 0 -17 -63 -29 -155 -30 -56 -1 -81 4 -125 26 -30 14 -66 38 -79 52 -14 14 -30 26 -38 26 -7 0 -13 9 -13 20 0 11 -4 20 -10 20 -5 0 -10 6 -10 13 0 8 -9 24 -20 37 -11 13 -20 29 -20 37 0 7 -8 13 -17 14 -11 0 -13 3 -5 6 19 7 17 123 -3 123 -8 0 -15 -8 -16 -17 -4 -59 2 -105 21 -157 24 -71 24 -66 3 -66 -15 0 -16 2 -3 10 12 8 12 10 -5 11 -11 0 -14 3 -7 6 18 7 15 23 -5 24 -11 0 -13 3 -5 6 18 7 15 20 -6 26 -21 5 -32 44 -32 112 0 37 -3 42 -19 38 -13 -3 -21 2 -26 16 -3 12 -13 21 -21 21 -23 0 -47 27 -31 34 6 4 2 4 -11 2 -14 -3 -25 1 -28 9 -3 7 -16 16 -30 19 -14 4 -24 14 -24 24 0 15 2 15 10 2 8 -13 10 -13 10 2 0 11 5 15 15 12 8 -4 15 -1 15 6 0 6 5 8 10 5 6 -3 10 -1 10 5 0 6 5 8 10 5 6 -3 10 -1 10 5 0 7 7 10 15 6 8 -3 15 -1 15 4 0 5 7 7 15 4 8 -4 15 -1 15 6 0 6 5 8 10 5 6 -3 10 -1 10 5 0 7 7 10 15 6 8 -3 15 -1 15 5 0 6 5 7 10 4 6 -3 10 -1 10 5 0 7 7 10 15 6 8 -3 15 -1 15 4 0 6 3 9 8 8 12 -2 42 14 42 23 0 5 -12 9 -27 9 -24 0 -66 -14 -351 -120 -56 -21 -99 -33 -95 -27 4 7 22 33 40 58 18 26 33 51 33 58 0 6 5 11 10 11 6 0 10 7 10 15 0 8 5 15 10 15 6 0 10 17 10 38 -1 33 -2 35 -14 20 -7 -10 -18 -18 -25 -18 -6 0 -10 -5 -8 -11 1 -6 -4 -14 -10 -16 -16 -6 -17 12 -2 39 8 15 8 19 0 14 -6 -4 -11 0 -11 11 0 10 -9 29 -20 43 -11 14 -20 31 -20 39 0 8 -9 34 -21 58 -11 24 -22 49 -23 55 -1 7 -10 30 -19 52 -9 21 -17 43 -17 49 0 5 -9 28 -19 51 -10 23 -34 82 -52 131 -18 50 -37 92 -41 93 -4 2 -8 12 -8 22 0 10 -4 22 -10 25 -5 3 -10 17 -10 31 0 13 -4 24 -10 24 -5 0 -10 11 -10 24 0 14 -4 27 -9 30 -5 3 -19 38 -32 78 -12 40 -29 80 -36 89 -17 20 -17 51 0 48 17 -3 47 11 47 22 0 5 -101 9 -229 9 -194 0 -230 -2 -235 -15z m174 -500 c7 -8 8 -15 2 -15 -5 0 -15 7 -22 15 -7 8 -8 15 -2 15 5 0 15 -7 22 -15z m1046 -1113 c-10 -9 -42 14 -38 27 1 6 -4 11 -10 11 -9 0 -9 3 1 9 10 7 20 2 34 -15 11 -14 16 -28 13 -32z m84 -63 c0 -5 -7 -9 -15 -9 -9 0 -12 6 -9 15 6 15 24 11 24 -6z m30 -24 c0 -9 -6 -12 -15 -9 -8 4 -12 10 -9 15 8 14 24 10 24 -6z m532 -205 c-12 -5 -25 -16 -28 -25 -6 -15 -34 -22 -34 -8 0 17 36 43 59 42 26 0 26 0 3 -9z m1828 -34 c0 -7 7 -19 15 -26 8 -7 15 -18 15 -24 0 -6 -5 -3 -11 7 -5 9 -19 17 -29 17 -13 0 -20 7 -20 20 0 11 7 20 15 20 8 0 15 -6 15 -14z m-1784 -33 c-11 -11 -17 4 -9 23 7 18 8 18 11 1 2 -10 1 -21 -2 -24z m1419 -17 c-39 -12 -40 -13 -37 -54 3 -33 0 -42 -12 -42 -11 0 -16 -9 -16 -27 0 -32 -7 -27 -14 10 -3 16 -1 25 5 22 5 -4 9 1 9 10 0 9 -4 13 -10 10 -6 -3 -10 4 -10 17 0 33 46 68 89 67 l36 -1 -40 -12z m-932 -13 c-7 -2 -15 -20 -19 -39 -7 -37 -34 -48 -34 -14 0 31 22 60 45 59 11 0 15 -3 8 -6z m95 -14 c-10 -5 -18 -19 -18 -29 0 -11 -7 -20 -15 -20 -8 0 -15 7 -15 15 0 23 22 44 45 44 18 0 19 0 3 -10z m-68 -31 c-1 -26 -3 -30 -10 -16 -6 9 -7 23 -4 32 9 25 14 19 14 -16z m276 16 c10 -8 14 -13 8 -10 -6 3 -26 8 -45 11 -44 8 -50 15 -13 15 17 0 39 -7 50 -16z m385 -1 c11 -15 11 -16 -1 -5 -22 19 -57 14 -74 -10 -9 -12 -16 -26 -16 -30 0 -14 38 -8 44 7 6 17 26 20 26 4 0 -6 -11 -24 -25 -41 l-25 -29 -12 25 c-15 35 -47 35 -40 1 2 -14 0 -25 -5 -25 -5 0 -11 20 -11 45 -1 25 2 45 8 45 5 0 10 -8 11 -17 0 -15 1 -16 7 -2 21 48 86 67 113 32z m122 -10 c6 -31 -1 -49 -14 -36 -15 15 -19 63 -5 63 8 0 16 -12 19 -27z m154 5 c-2 -12 -8 -23 -14 -25 -14 -5 -24 35 -9 41 22 9 26 6 23 -16z m-524 5 c-13 -2 -33 -2 -45 0 -13 2 -3 4 22 4 25 0 35 -2 23 -4z m-247 -42 c-9 -10 -13 -21 -9 -26 5 -4 3 -5 -4 -1 -13 7 -8 31 11 55 7 9 11 10 14 2 2 -7 -3 -20 -12 -30z m557 20 c6 -24 0 -31 -25 -31 -10 0 -18 -5 -18 -12 0 -6 -2 -9 -5 -6 -3 2 0 19 6 36 12 36 34 42 42 13z m-1033 -21 c0 -13 -5 -18 -15 -14 -8 4 -15 12 -15 20 0 8 7 14 15 14 8 0 15 -9 15 -20z m578 -7 c-5 -25 -28 -28 -28 -4 0 12 6 21 16 21 9 0 14 -7 12 -17z m42 -33 c-16 -30 -22 -19 -7 13 6 14 13 22 15 17 2 -5 -2 -19 -8 -30z m638 8 c-6 -18 -28 -21 -28 -4 0 9 7 16 16 16 9 0 14 -5 12 -12z m-1188 -13 c0 -8 -7 -15 -15 -15 -8 0 -15 7 -15 15 0 8 7 15 15 15 8 0 15 -7 15 -15z m443 3 c6 -21 -4 -48 -19 -48 -9 0 -14 11 -14 30 0 30 24 43 33 18z m594 -26 c3 -23 0 -32 -10 -32 -14 0 -29 54 -18 65 12 12 25 -3 28 -33z m-737 18 c0 -5 -7 -10 -15 -10 -8 0 -15 5 -15 10 0 6 7 10 15 10 8 0 15 -4 15 -10z m595 -19 c-3 -12 -13 -21 -21 -21 -18 0 -18 9 3 32 20 22 27 17 18 -11z m455 13 c0 -12 -6 -15 -25 -10 -14 4 -25 2 -25 -4 0 -5 -4 -10 -10 -10 -23 0 -7 20 23 29 17 5 33 10 35 10 1 1 2 -6 2 -15z m-848 -19 c0 -5 -5 -11 -11 -13 -6 -2 -11 4 -11 13 0 9 5 15 11 13 6 -2 11 -8 11 -13z m651 -22 c-3 -7 -9 -13 -14 -13 -5 0 -9 6 -9 13 0 8 6 14 14 14 8 0 12 -6 9 -14z m-669 -38 c-6 -16 -34 -21 -34 -7 0 13 11 22 26 22 8 0 11 -6 8 -15z m1084 -95 c-15 -24 -19 -21 -11 8 3 12 9 19 14 16 5 -3 3 -14 -3 -24z"></path><path id="pVZA7lgFT" d="M1919 3003 c-35 -39 -109 -141 -109 -150 0 -26 66 -122 142 -208 70 -79 88 -101 88 -110 0 -6 13 -25 29 -43 17 -17 25 -32 19 -32 -6 0 -9 -3 -5 -6 8 -8 67 12 165 57 l83 38 -23 33 c-13 17 -34 42 -48 54 -14 12 -35 31 -47 41 -13 11 -20 23 -16 27 4 3 -3 15 -15 26 -12 12 -22 25 -22 31 0 5 -13 15 -30 20 -16 6 -30 15 -30 20 0 5 0 11 -1 14 0 2 -13 18 -30 36 -16 17 -36 46 -45 65 -9 19 -20 31 -25 28 -5 -3 -9 4 -9 14 0 11 -7 22 -15 26 -9 3 -19 15 -23 26 -7 20 -9 20 -33 -7z"></path><path id="p1F8sfP9wV" d="M5040 3009 c0 -5 -4 -8 -9 -5 -5 3 -22 -13 -38 -37 -73 -109 -117 -167 -128 -167 -15 0 -58 -58 -51 -69 7 -11 -17 -32 -41 -35 -10 -2 -18 -12 -19 -23 -2 -28 -15 -48 -23 -35 -3 6 -11 0 -18 -14 -11 -23 -10 -24 30 -25 l42 -1 -50 -12 c-58 -14 -75 -23 -75 -38 0 -7 20 -8 60 -4 72 8 120 -12 172 -74 19 -22 42 -40 51 -40 13 0 17 -9 17 -40 0 -36 3 -40 25 -40 27 0 28 -7 -19 94 -26 58 -27 59 -10 95 20 42 46 75 120 154 30 32 62 74 72 95 14 29 22 37 42 35 14 -1 19 0 12 3 -6 3 -10 10 -7 14 3 5 -4 14 -15 20 -11 6 -18 15 -15 20 3 5 -3 13 -12 19 -10 6 -13 11 -8 11 6 0 3 5 -5 10 -8 5 -15 13 -15 17 -1 10 -69 83 -78 83 -4 0 -7 -5 -7 -11z"></path><path id="py1fD9xIj" d="M5290 2700 c13 -8 12 -10 -2 -10 -10 0 -18 -4 -18 -10 0 -5 5 -10 10 -10 6 0 10 -13 10 -30 0 -16 5 -30 10 -30 6 0 10 -7 10 -15 0 -11 11 -15 36 -15 20 0 34 3 32 8 -13 29 -83 122 -92 122 -6 0 -4 -5 4 -10z"></path><path id="peEF7gf3j" d="M1482 2528 c5 -15 28 -23 28 -10 0 5 -7 13 -16 16 -10 4 -14 1 -12 -6z"></path><path id="puHitXpE8" d="M2117 2439 c-46 -11 -129 -52 -146 -73 -12 -14 -9 -16 23 -16 32 0 36 3 36 25 0 21 5 25 30 25 17 0 30 5 30 10 0 6 10 10 23 11 12 0 38 7 57 14 30 12 32 13 10 13 -14 0 -42 -4 -63 -9z"></path><path id="p15JLBDBB3" d="M4108 2372 c-34 -7 -20 -32 17 -32 28 0 35 4 35 19 0 19 -10 22 -52 13z"></path><path id="pqzAsoPVZ" d="M4170 2300 c0 -13 7 -20 19 -20 14 0 18 5 14 20 -3 11 -12 20 -19 20 -8 0 -14 -9 -14 -20z"></path><path id="pAj8EzM21" d="M4270 2306 c0 -17 24 -28 45 -20 17 7 17 12 17 -153 0 -120 -4 -133 -30 -132 -14 0 -13 2 3 9 17 7 15 9 -12 9 -34 1 -44 15 -18 25 8 3 15 12 15 21 0 8 7 15 15 15 12 0 15 16 15 85 l0 85 -35 0 c-19 0 -35 4 -35 9 0 13 -44 4 -48 -9 -2 -5 -14 -10 -26 -10 -39 0 -66 -28 -67 -68 0 -29 -2 -32 -8 -17 -15 38 -1 90 30 110 39 27 37 37 -8 33 -31 -2 -39 -7 -41 -25 -2 -13 -8 -23 -13 -23 -5 0 -9 -60 -9 -140 l0 -140 45 0 c33 0 45 -4 45 -15 0 -11 -11 -15 -40 -15 l-40 0 0 -45 c0 -51 19 -62 21 -12 1 17 3 24 6 15 8 -31 53 -20 66 15 4 9 12 16 19 15 9 -2 12 9 10 39 -3 33 0 44 16 52 15 8 23 7 31 -3 8 -10 9 -16 1 -21 -21 -13 -11 -50 18 -62 49 -21 92 -20 92 2 0 10 -10 15 -30 15 -42 0 -37 15 10 29 l40 12 0 158 c0 156 0 159 -22 165 -41 10 -78 7 -78 -8z m1 -328 c-3 -21 -6 -26 -9 -15 -3 17 3 47 11 47 2 0 1 -15 -2 -32z"></path><path id="p18vrz6htc" d="M1897 2281 c-22 -38 -22 -41 8 -41 22 0 25 4 25 35 0 43 -10 44 -33 6z"></path><path id="p1BQkBLeVU" d="M2760 2267 c0 -29 4 -37 18 -37 16 0 17 -7 12 -67 -9 -88 -44 -155 -97 -182 -28 -14 -30 -47 -3 -54 11 -3 20 -1 20 5 0 5 5 6 10 3 6 -3 14 5 20 19 11 29 23 36 13 9 -4 -13 3 -9 24 10 38 35 63 28 63 -19 0 -42 27 -47 33 -6 l4 27 2 -27 c1 -24 5 -28 30 -28 19 0 31 -6 33 -16 3 -13 8 -12 38 8 30 20 41 22 75 15 100 -21 106 -21 112 2 6 24 23 29 23 6 0 -8 7 -15 15 -15 12 0 15 18 15 100 0 80 -3 100 -14 100 -8 0 -17 -13 -21 -30 -10 -46 -33 -38 -37 13 -2 34 -6 41 -22 39 -10 -2 -15 1 -11 7 3 6 0 9 -7 6 -8 -3 -24 4 -36 15 -29 27 -62 19 -62 -16 0 -40 -20 -17 -21 24 -1 23 -3 29 -6 15 -2 -13 -9 -23 -14 -23 -5 0 -9 -44 -9 -99 0 -99 -4 -110 -40 -123 -13 -5 -15 16 -12 153 3 135 2 159 -11 159 -18 0 -27 -30 -27 -88 0 -36 -3 -43 -17 -40 -15 3 -18 13 -16 58 1 42 0 48 -6 25 l-7 -30 -14 42 c-7 24 -21 50 -32 59 -17 16 -18 15 -18 -19z"></path><path id="p2HeBcwFb" d="M3979 2193 c-1 -10 -2 -25 -3 -33 -2 -8 -3 -27 -4 -42 -1 -18 -8 -28 -17 -28 -11 0 -15 13 -15 53 -1 49 -2 51 -16 32 -8 -11 -19 -19 -24 -18 -5 2 -12 -14 -15 -35 -11 -68 -13 -68 -15 3 -1 49 -4 64 -10 50 -5 -11 -9 -34 -9 -52 -1 -17 -5 -35 -11 -38 -5 -3 -10 -16 -10 -28 0 -12 -7 -35 -15 -51 -8 -15 -15 -40 -15 -53 0 -21 3 -23 14 -14 11 10 16 8 21 -9 4 -12 9 -19 13 -16 3 4 15 -3 28 -15 14 -13 35 -20 63 -21 28 0 41 -5 41 -14 0 -8 7 -14 15 -14 11 0 15 12 15 45 0 45 0 45 -35 45 -19 0 -35 4 -35 9 0 11 25 21 51 21 18 0 19 8 19 120 0 100 -2 120 -15 120 -8 0 -15 -8 -16 -17z"></path><path id="pbNhurxMO" d="M1976 2035 c-11 -29 -7 -75 7 -75 7 0 18 -15 25 -32 17 -45 66 -96 107 -114 40 -16 95 -19 95 -4 0 6 7 10 15 10 8 0 15 -4 15 -10 0 -5 16 -10 35 -10 28 0 35 4 35 19 0 17 -6 18 -58 14 -110 -9 -200 50 -245 161 -17 42 -26 53 -31 41z"></path><path id="pqfbbAPNu" d="M4830 1975 c0 -24 -3 -25 -55 -25 -41 0 -55 -4 -55 -15 0 -17 59 -30 95 -21 21 5 25 12 25 46 0 22 -2 40 -5 40 -3 0 -5 -11 -5 -25z"></path><path id="pHOoDWisH" d="M2030 1973 c0 -25 49 -80 91 -102 49 -26 99 -24 99 5 0 9 -6 14 -12 11 -7 -2 -12 -10 -10 -16 1 -6 -2 -11 -8 -11 -5 0 -10 9 -10 19 0 14 -5 18 -20 14 -11 -3 -20 -1 -20 5 0 6 -10 14 -22 18 -13 4 -25 9 -28 13 -18 22 -60 53 -60 44z"></path><path id="pLjCxJlRn" d="M4657 1951 c-5 -22 0 -31 20 -31 7 0 13 11 13 25 0 30 -25 34 -33 6z"></path><path id="p192czrscW" d="M2875 1900 c-4 -6 7 -10 24 -10 17 0 31 5 31 10 0 6 -11 10 -24 10 -14 0 -28 -4 -31 -10z"></path><path id="pntu21E2u" d="M4298 1879 c-12 -6 -18 -22 -18 -44 0 -28 4 -35 20 -35 11 0 20 5 20 10 0 6 -4 10 -10 10 -5 0 -10 5 -10 11 0 5 5 7 10 4 6 -3 10 -1 10 4 0 6 -4 11 -10 11 -5 0 -10 5 -10 11 0 5 5 7 10 4 6 -3 10 1 10 9 0 19 0 18 -22 5z"></path><path id="pZS3YBFV" d="M2338 1856 c-26 -20 -22 -26 18 -26 28 0 35 3 32 17 -4 22 -28 27 -50 9z"></path><path id="pPIJZYUiK" d="M3010 1745 c0 -31 11 -32 28 -4 8 12 9 18 3 14 -6 -3 -11 -1 -11 4 0 6 -4 11 -10 11 -5 0 -10 -11 -10 -25z"></path><path id="ppcMgjK9k" d="M3430 1555 c0 -14 -4 -25 -10 -25 -5 0 -10 -7 -10 -15 0 -21 36 -19 45 3 17 43 16 62 -5 62 -15 0 -20 -7 -20 -25z"></path><path id="pDGk1bObO" d="M3750 1545 c0 -8 9 -15 20 -15 11 0 23 -7 26 -15 7 -18 31 -20 37 -2 11 33 -23 66 -36 35 -4 -10 -6 -10 -6 0 -1 17 -41 15 -41 -3z"></path><path id="p6lIuHCEX" d="M3557 1524 c-9 -10 2 -24 19 -24 8 0 14 7 14 15 0 15 -21 21 -33 9z"></path><path id="p1CV1iI5KB" d="M3308 1493 c-10 -2 -18 -8 -18 -13 0 -4 9 -6 20 -3 11 3 20 9 20 14 0 5 -1 8 -2 8 -2 -1 -11 -3 -20 -6z"></path><path id="phhfkoAzN" d="M2890 1464 c0 -14 3 -14 15 -4 8 7 15 14 15 16 0 2 -7 4 -15 4 -8 0 -15 -7 -15 -16z"></path></g></g><g id="lzYpvtwWQzkP7CBIdsjVBG" fill="rgb(247,152,29)" style="transform: none;"><g><path id="pRht18aKB" d="M6610 3355 c0 -3 7 -17 16 -30 25 -39 21 -84 -14 -153 -18 -34 -32 -70 -32 -78 0 -9 -10 -30 -22 -47 -12 -16 -26 -51 -30 -76 -17 -92 -20 -99 -39 -104 -13 -3 -17 -11 -13 -21 4 -9 -1 -25 -10 -35 -9 -10 -13 -20 -10 -23 3 -4 -8 -36 -25 -73 -17 -36 -31 -71 -31 -77 0 -6 -6 -19 -13 -27 -7 -9 -19 -36 -26 -61 -7 -25 -22 -62 -33 -83 -12 -24 -17 -48 -14 -62 4 -14 1 -27 -6 -32 -14 -9 -48 -71 -52 -94 -1 -8 -7 -24 -14 -36 -7 -12 -12 -26 -11 -30 3 -20 -2 -33 -13 -34 -7 0 -31 -9 -53 -19 l-40 -19 36 4 c102 11 275 111 379 221 80 83 98 109 144 200 61 123 80 210 80 364 0 155 -13 217 -74 348 -30 64 -43 82 -59 82 -12 0 -21 -2 -21 -5z"></path><path id="p1HO7en7uv" d="M317 3278 c-60 -129 -72 -186 -72 -348 0 -171 20 -259 88 -383 82 -150 194 -262 336 -336 73 -37 180 -75 189 -67 2 2 -18 10 -45 18 -37 11 -49 19 -54 38 -9 38 -33 90 -41 90 -4 0 -8 16 -8 35 0 21 -6 37 -17 43 -9 6 -14 16 -10 25 3 9 0 23 -8 31 -8 8 -15 23 -15 33 0 11 -5 24 -12 31 -7 7 -13 29 -14 49 -1 28 -8 42 -33 62 -27 23 -31 30 -25 58 5 25 3 34 -10 39 -9 3 -16 14 -16 24 0 11 -4 21 -9 25 -5 3 -13 19 -16 36 -4 17 -15 46 -25 63 -10 17 -23 54 -29 81 -7 28 -19 60 -27 73 -9 13 -17 31 -19 40 -9 48 -28 109 -39 122 -46 60 -56 106 -31 154 18 33 18 36 6 36 -5 0 -25 -33 -44 -72z"></path><path id="plgqfFazc" d="M1647 2618 c-31 -46 -57 -93 -57 -103 0 -11 23 -48 50 -82 28 -34 50 -65 50 -68 0 -10 43 -44 55 -45 18 0 168 61 181 74 10 10 5 20 -24 52 -21 21 -41 49 -47 61 -5 12 -39 52 -75 90 -36 37 -67 76 -70 86 -4 14 -19 -1 -63 -65z"></path><path id="pMTiLHgco" d="M5290 2692 c-8 -1 -30 -25 -48 -51 -18 -27 -54 -71 -80 -99 -59 -63 -114 -140 -104 -145 4 -3 49 -21 101 -41 88 -34 95 -35 106 -19 7 10 32 38 54 63 23 25 51 60 64 77 12 18 28 34 34 35 16 4 -44 98 -63 98 -8 0 -11 6 -8 15 4 10 0 15 -11 15 -9 0 -13 4 -10 10 9 14 -17 46 -35 42z"></path><path id="pIiUV5w1k" d="M1936 2334 l-29 -29 28 -3 c15 -2 29 -1 32 1 2 3 3 17 1 32 l-3 28 -29 -29z"></path><path id="pD9zIZ2M5" d="M2682 1768 l3 -112 45 -8 c75 -13 100 -27 100 -57 0 -50 11 -71 36 -71 16 0 28 10 39 30 12 23 22 30 45 30 17 0 30 5 30 10 0 6 -7 10 -15 10 -21 0 -20 3 29 77 45 66 49 93 15 93 -11 0 -38 8 -62 19 -59 26 -93 37 -162 51 -33 7 -70 19 -83 27 l-23 14 3 -113z"></path><path id="p35n9XOLx" d="M4286 1871 c-4 -5 -44 -22 -91 -37 -47 -15 -85 -31 -85 -34 0 -14 -52 -60 -61 -54 -5 3 -9 0 -9 -5 0 -13 -57 -15 -65 -2 -7 12 33 27 75 30 22 1 49 47 43 74 -6 22 -33 23 -33 1 0 -22 -29 -43 -57 -44 -16 0 -23 -6 -23 -19 0 -11 -5 -21 -12 -23 -7 -3 5 -28 31 -66 45 -67 58 -94 45 -91 -22 4 -44 -2 -44 -11 0 -5 18 -10 39 -10 34 0 43 -5 58 -30 14 -24 24 -30 50 -30 26 0 34 5 39 25 3 14 3 40 0 59 -6 31 -4 34 25 40 17 3 44 6 58 6 15 0 32 5 39 12 17 17 16 155 0 161 -10 4 -10 8 1 15 11 8 11 10 0 15 -12 4 -11 7 1 16 13 9 13 11 -2 11 -9 0 -19 -4 -22 -9z"></path><path id="pO15kzqJ0" d="M1205 1620 c9 -184 100 -367 254 -512 164 -154 369 -228 598 -215 54 3 112 10 128 16 17 6 48 14 70 18 26 4 33 8 19 10 -11 2 -40 0 -63 -6 -39 -8 -44 -7 -48 10 -3 10 -13 19 -23 19 -10 0 -35 16 -56 35 -21 19 -46 35 -56 35 -10 0 -18 3 -18 8 0 4 -22 19 -48 34 -26 15 -56 36 -66 47 -11 12 -25 21 -32 21 -7 0 -18 9 -24 20 -6 11 -20 20 -30 20 -11 0 -30 11 -42 25 -12 14 -27 25 -33 25 -6 0 -24 11 -40 25 -81 67 -134 105 -149 105 -10 0 -48 25 -85 55 -38 30 -74 55 -81 55 -6 0 -25 14 -40 30 -15 17 -37 30 -48 30 -12 0 -23 9 -27 21 -5 14 -13 19 -26 16 -16 -4 -19 1 -20 36 0 23 -4 51 -9 62 -5 13 -7 -3 -5 -45z"></path><path id="pH2O6Qb2T" d="M5766 1599 c-3 -16 -14 -32 -23 -36 -10 -3 -29 -16 -43 -29 -14 -12 -41 -26 -60 -31 -27 -7 -37 -16 -45 -41 -6 -23 -15 -32 -31 -32 -11 0 -29 -9 -39 -20 -10 -11 -24 -20 -32 -20 -15 0 -98 -56 -157 -107 -22 -18 -45 -33 -52 -33 -7 0 -21 -11 -32 -25 -11 -13 -22 -22 -24 -19 -8 7 -51 -18 -104 -62 -27 -23 -59 -44 -71 -48 -11 -4 -28 -18 -37 -31 -9 -14 -24 -25 -34 -25 -10 0 -25 -9 -35 -20 -9 -11 -23 -20 -31 -20 -8 0 -28 -13 -44 -28 -17 -16 -50 -33 -74 -39 l-43 -9 72 -17 c239 -56 533 23 719 195 103 95 198 248 233 378 25 88 26 116 7 135 -12 12 -15 10 -20 -16z"></path><path id="pV78jLpGr" d="M4180 1496 c0 -7 -10 -16 -21 -19 -19 -5 -21 -10 -15 -43 8 -40 26 -74 39 -74 5 0 6 15 2 33 l-7 32 32 -35 c20 -23 33 -31 36 -22 3 6 12 12 20 12 10 0 14 12 14 40 0 29 -4 40 -15 40 -9 0 -15 9 -15 25 0 22 -4 25 -35 25 -23 0 -35 -5 -35 -14z"></path><path id="pen6VhDRD" d="M4130 745 c-10 -12 -10 -15 3 -15 8 0 17 7 21 15 3 8 2 15 -3 15 -5 0 -14 -7 -21 -15z"></path><path id="p15PnkB6nP" d="M2885 707 c39 -53 165 -152 244 -191 251 -127 537 -120 780 17 84 47 228 176 198 177 -10 0 -24 -6 -32 -13 -7 -8 -24 -13 -37 -12 -12 1 -26 -2 -29 -7 -3 -4 -238 -8 -522 -9 -454 0 -519 2 -533 16 -18 18 -38 20 -28 3 4 -7 -10 3 -31 22 l-38 35 28 -38z m1103 -54 c15 -3 19 -8 12 -13 -15 -9 -61 0 -54 11 6 11 11 11 42 2z"></path></g></g><g id="l9SNE8Psf2euRnXP8xNNT1" fill="rgb(253,140,1)" style="transform: none;"><g><path id="pNsZCg56e" d="M255 2785 c8 -78 53 -215 70 -215 2 0 -3 19 -12 43 -8 23 -26 80 -39 127 -14 49 -22 68 -19 45z"></path><path id="p1C2qTFTnA" d="M6720 2764 c0 -9 -13 -56 -30 -106 -16 -49 -30 -91 -30 -94 0 -13 29 -1 33 14 3 9 17 51 31 92 30 87 31 96 11 104 -9 3 -15 0 -15 -10z"></path><path id="p16ckrBc9j" d="M1487 2386 c-123 -179 -146 -216 -133 -216 16 0 412 155 418 164 4 6 -6 19 -22 31 -17 11 -30 24 -30 28 0 4 -22 36 -50 69 -27 34 -50 72 -52 85 -2 19 -29 -14 -131 -161z"></path><path id="p19sFNvxvO" d="M330 2554 c0 -10 52 -95 56 -91 3 2 -7 25 -22 50 -24 43 -34 56 -34 41z"></path><path id="pivSIzNQX" d="M5390 2543 c-8 -2 -25 -18 -37 -36 -12 -18 -46 -58 -76 -89 -30 -32 -52 -60 -49 -63 3 -3 -1 -5 -8 -5 -34 0 20 -25 228 -104 211 -80 223 -83 206 -58 -29 45 -236 347 -243 353 -3 3 -13 4 -21 2z"></path><path id="p1B7zksidQ" d="M6602 2474 c-24 -36 -23 -56 0 -36 7 6 21 24 31 41 27 45 -2 41 -31 -5z"></path><path id="pl2ezas2h" d="M6505 2350 c-27 -27 -45 -50 -39 -50 5 0 32 23 59 50 27 28 45 50 39 50 -5 0 -32 -22 -59 -50z"></path><path id="pyqTjLc3j" d="M2680 1476 l0 -249 31 39 c17 22 35 46 40 56 5 10 16 14 29 11 17 -5 20 0 20 26 0 26 4 31 25 31 27 0 34 17 10 26 -8 4 -15 14 -15 24 0 12 7 17 27 16 14 0 28 5 30 12 3 6 -1 12 -7 12 -6 0 -3 12 9 29 25 34 26 41 7 41 -13 0 -26 28 -26 58 0 8 17 12 53 12 37 0 48 3 37 10 -12 8 -12 10 5 11 11 0 14 3 7 6 -7 3 -18 1 -25 -4 -17 -13 -46 -9 -92 12 -46 21 -49 21 -92 23 -19 1 -41 11 -53 24 l-20 22 0 -248z"></path><path id="pmXOQypXC" d="M4283 1700 c-8 -11 -30 -19 -69 -23 -31 -3 -61 -10 -67 -16 -5 -5 -15 -7 -22 -5 -7 3 -28 -4 -46 -15 l-34 -21 53 0 c30 0 52 -4 52 -11 0 -5 -5 -7 -10 -4 -6 4 -36 3 -68 -1 l-57 -8 40 -11 c22 -7 54 -10 72 -8 25 3 31 0 27 -11 -3 -8 -17 -16 -30 -18 l-24 -3 24 -36 c14 -20 22 -39 19 -42 -11 -11 8 -57 23 -57 10 0 14 6 11 15 -7 17 11 31 23 19 5 -5 11 -22 14 -39 2 -16 5 -32 6 -35 1 -3 1 -15 0 -27 -1 -16 3 -21 13 -18 8 4 27 -13 50 -47 20 -28 37 -48 38 -43 1 8 1 239 -1 426 0 51 -19 70 -37 39z"></path><path id="p12YlJ7P9o" d="M2875 1601 c-14 -14 0 -21 43 -21 55 0 96 19 47 21 -71 4 -86 4 -90 0z"></path><path id="p15uB8ALci" d="M5605 1190 c-14 -15 -15 -20 -4 -20 8 0 20 9 27 20 7 11 8 20 4 20 -5 0 -17 -9 -27 -20z"></path><path id="pDP0KKNAQ" d="M5555 1130 c-10 -11 -14 -20 -8 -20 5 0 18 9 28 20 10 11 14 20 8 20 -5 0 -18 -9 -28 -20z"></path><path id="p4T60ItvZ" d="M1470 1097 c0 -6 107 -87 115 -87 4 0 -6 10 -22 23 -39 33 -93 69 -93 64z"></path><path id="p1FyvzErPC" d="M5495 1090 c-5 -5 -23 -21 -40 -34 -43 -37 -11 -32 41 6 24 17 44 33 44 35 0 7 -36 1 -45 -7z"></path><path id="p9z3heAV8" d="M5385 1009 c-24 -15 -26 -19 -10 -19 23 1 60 26 48 33 -4 2 -21 -4 -38 -14z"></path><path id="pA8h4N9Ox" d="M1600 1006 c0 -7 72 -47 80 -44 4 2 -12 13 -36 26 -24 12 -44 20 -44 18z"></path><path id="pAXpEPArN" d="M5317 973 c-38 -20 -28 -27 14 -10 18 7 29 16 24 19 -6 3 -23 -1 -38 -9z"></path><path id="pqacZWVjw" d="M3430 430 c33 -11 90 -11 115 0 13 6 -7 8 -60 8 -55 0 -72 -3 -55 -8z"></path></g></g><g id="l5cbCi13RFalzLzQ78Mg6C" fill="rgb(81,21,0)" style="transform: none;"><g><path id="pBkdvle44" d="M2719 3203 c0 -2 -1 -18 -2 -35 -1 -32 0 -33 46 -36 l47 -3 0 -275 0 -274 -33 0 c-42 0 -57 -15 -57 -57 l0 -33 150 0 150 0 0 45 0 45 -45 0 -45 0 0 270 0 270 100 0 100 0 0 -60 0 -60 50 0 50 0 0 100 c0 73 -3 100 -12 100 -137 3 -498 4 -499 3z"></path><path id="poQ2tTZgD" d="M4080 3201 c-184 -60 -248 -283 -124 -430 79 -94 256 -109 342 -28 36 33 62 91 65 143 l2 47 -164 42 c-91 22 -166 46 -168 52 -2 6 8 24 22 41 47 56 146 63 237 16 25 -13 27 -12 47 22 12 19 21 37 21 39 0 3 -23 16 -52 31 -55 28 -178 42 -228 25z m48 -290 c63 -16 116 -32 119 -35 3 -3 -3 -22 -14 -43 -14 -28 -30 -42 -60 -52 -36 -13 -43 -12 -78 5 -49 24 -75 60 -82 112 -3 23 -4 42 -2 42 2 0 55 -13 117 -29z"></path><path id="p1GtGLNQdD" d="M3310 2995 l0 -205 -41 0 -40 0 3 -42 3 -43 94 0 94 0 1 205 1 205 38 3 c36 3 37 4 37 43 l0 39 -95 0 -95 0 0 -205z"></path><path id="p5JsdqTzi" d="M3580 3160 c0 -39 1 -40 35 -40 l35 0 0 -165 0 -165 -24 0 c-31 0 -56 -25 -56 -56 0 -24 11 -29 56 -25 19 1 22 -5 27 -56 9 -88 56 -138 142 -151 84 -12 95 -7 95 42 0 42 0 43 -36 44 -59 2 -84 25 -84 75 0 43 1 43 30 39 43 -6 80 21 80 58 0 30 -1 30 -55 30 -45 0 -55 3 -56 18 0 9 -1 82 0 162 l0 145 40 3 c40 3 41 4 41 43 l0 39 -135 0 -135 0 0 -40z"></path><path id="pkxD4a1cu" d="M3278 2634 c-5 -4 -8 -27 -8 -51 0 -64 39 -104 108 -111 l52 -5 0 41 c0 54 -13 85 -43 105 -29 19 -98 32 -109 21z"></path><path id="pvf4b9a0z" d="M4680 2569 c-34 -14 -34 -13 -11 -57 20 -39 22 -40 53 -31 61 17 108 -11 157 -94 21 -35 22 -37 4 -43 -92 -29 -164 -93 -182 -161 -6 -22 -13 -71 -15 -109 -3 -38 -10 -70 -15 -72 -6 -2 -11 -21 -11 -43 l0 -39 90 0 90 0 0 39 c0 33 -4 40 -22 43 -21 3 -23 8 -22 65 1 79 26 144 70 183 56 49 67 43 97 -57 33 -109 47 -174 41 -185 -3 -5 -13 -7 -22 -6 -17 3 -17 0 -14 -57 2 -25 2 -25 103 -25 l101 0 -6 43 c-3 23 -5 43 -5 44 -1 0 -10 -1 -20 -4 -16 -4 -22 3 -31 39 -29 115 -83 271 -118 344 -68 140 -134 195 -234 193 -29 0 -64 -5 -78 -10z"></path><path id="p19d3Tb4L6" d="M2109 2436 c-98 -26 -177 -91 -226 -186 -25 -50 -28 -65 -28 -155 0 -87 3 -107 27 -157 98 -209 371 -282 536 -143 l33 28 -41 23 -40 23 -43 -19 c-162 -74 -337 52 -337 243 0 113 47 193 138 234 47 22 64 25 126 20 65 -4 74 -2 108 22 21 14 36 31 35 36 -2 6 -26 18 -53 27 -58 20 -169 22 -235 4z"></path><path id="pobmE99Wp" d="M2486 2370 c-78 -24 -140 -94 -158 -181 -22 -105 35 -214 136 -260 47 -21 139 -25 197 -7 52 15 117 73 140 122 24 54 24 148 0 202 -23 49 -88 107 -140 122 -44 14 -132 14 -175 2z m164 -109 c39 -28 62 -79 57 -130 -6 -53 -32 -90 -81 -115 -49 -24 -97 -15 -144 29 -35 32 -37 36 -37 98 0 56 4 69 25 92 51 56 123 66 180 26z"></path><path id="pOzAYOyjb" d="M2951 2367 c-13 -6 -34 -25 -45 -40 -19 -25 -22 -46 -26 -190 -7 -221 -8 -217 44 -217 23 0 47 5 54 12 8 8 12 57 12 152 0 171 7 190 68 194 37 3 47 -1 76 -30 44 -44 56 -90 56 -220 l0 -108 55 0 55 0 2 183 3 182 28 3 c24 3 27 7 27 43 l0 39 -69 0 c-75 0 -101 -14 -101 -53 0 -19 -3 -18 -32 10 -18 18 -46 37 -61 42 -38 15 -116 14 -146 -2z"></path><path id="p14NjyPNf4" d="M4097 2366 c-98 -27 -117 -64 -117 -236 l0 -130 -24 0 c-33 0 -56 -25 -56 -61 0 -27 2 -29 40 -29 l40 0 0 -70 0 -70 38 0 c53 0 72 23 72 88 l0 52 33 0 c40 0 67 25 67 63 0 26 -2 27 -51 27 l-51 0 4 121 c3 113 5 122 27 140 13 10 36 19 52 19 28 0 29 2 29 50 0 48 -1 50 -27 49 -16 0 -49 -6 -76 -13z"></path><path id="pEQm3E7YO" d="M3438 2188 l-3 -183 -32 -3 c-31 -3 -33 -6 -33 -43 l0 -39 75 0 c68 0 76 2 91 25 8 13 13 29 9 35 -3 5 -2 10 4 10 6 0 15 -9 20 -19 6 -10 31 -29 56 -41 37 -18 59 -21 106 -18 110 8 139 64 139 268 l0 110 30 0 c28 0 30 2 30 40 l0 40 -90 0 -90 0 0 -160 c0 -147 -2 -162 -20 -180 -26 -26 -69 -25 -111 3 -48 33 -63 69 -67 170 l-4 87 36 0 c35 0 36 1 36 40 l0 40 -90 0 -90 0 -2 -182z"></path><path id="pGaeslgKG" d="M4270 2331 c0 -37 2 -40 33 -43 l32 -3 3 -129 c3 -137 -3 -156 -43 -156 -18 0 -24 -7 -28 -32 -2 -18 -3 -36 0 -40 7 -13 148 -9 161 4 7 7 12 28 12 47 l0 36 32 -39 c32 -39 80 -66 118 -66 18 0 20 6 20 54 l0 53 -38 7 c-85 13 -122 72 -122 191 l0 75 30 0 c28 0 30 2 30 40 l0 40 -120 0 -120 0 0 -39z"></path><path id="pzYEMg7lg" d="M3235 1690 c-4 -6 -6 -32 -5 -58 3 -69 2 -72 -20 -72 -28 0 -25 -19 5 -30 14 -5 25 -14 25 -20 0 -5 7 -10 15 -10 12 0 15 18 15 100 0 80 -3 100 -14 100 -8 0 -18 -5 -21 -10z"></path><path id="p1HSmUUArP" d="M3388 1689 c-10 -5 -18 -17 -18 -24 0 -17 26 -20 35 -5 10 17 25 11 25 -9 0 -14 -8 -21 -27 -23 -60 -7 -49 -128 11 -128 35 0 48 23 53 94 5 55 3 66 -16 85 -23 23 -37 25 -63 10z m42 -125 c0 -24 -5 -34 -15 -34 -10 0 -15 10 -15 33 0 19 3 37 6 40 13 13 24 -5 24 -39z"></path><path id="pDtPEefwT" d="M3580 1685 c0 -14 24 -86 45 -137 6 -15 2 -18 -29 -18 -25 0 -36 -4 -36 -15 0 -12 13 -15 55 -15 61 0 66 7 40 56 -8 16 -20 55 -27 87 -9 44 -16 57 -30 57 -10 0 -18 -7 -18 -15z"></path><path id="pySdIrOnz" d="M3799 1693 c0 -5 0 -36 1 -70 1 -61 1 -63 -24 -63 -33 0 -34 -18 -2 -30 13 -5 27 -14 31 -19 17 -29 25 -2 25 89 0 82 -3 100 -15 100 -8 0 -15 -3 -16 -7z"></path><path id="pAfWaLJFZ" d="M2870 1590 c0 -6 43 -10 110 -10 67 0 110 4 110 10 0 6 -43 10 -110 10 -67 0 -110 -4 -110 -10z"></path><path id="psu5ZUg1k" d="M3950 1590 c0 -6 43 -10 110 -10 67 0 110 4 110 10 0 6 -43 10 -110 10 -67 0 -110 -4 -110 -10z"></path><path id="p6gGYiL4S" d="M2560 1526 c-27 -33 18 -72 48 -42 13 13 14 20 6 34 -15 23 -38 26 -54 8z"></path><path id="p5EqQSeAX" d="M4420 1526 c-27 -33 18 -72 48 -42 13 13 14 20 6 34 -15 23 -38 26 -54 8z"></path><path id="px7Dj5xDP" d="M2790 1458 c-6 -24 -15 -59 -20 -78 -11 -40 -6 -47 34 -52 34 -3 47 17 16 25 -29 8 -26 37 5 37 30 0 33 20 5 27 -32 8 -20 38 14 38 36 1 46 21 14 30 -13 4 -31 9 -40 11 -13 4 -20 -5 -28 -38z"></path><path id="pqFcOSxRc" d="M4151 1471 c-12 -7 -11 -20 4 -82 10 -41 19 -76 21 -77 8 -10 73 21 76 36 6 25 -19 114 -34 123 -17 11 -49 11 -67 0z m65 -68 c10 -34 10 -44 -1 -53 -15 -12 -19 -7 -29 35 -4 17 -9 38 -12 48 -5 14 -1 18 12 15 11 -2 23 -19 30 -45z"></path><path id="p15pWvM4cX" d="M2930 1445 c-18 -22 -2 -40 20 -20 15 14 19 14 30 1 10 -13 6 -19 -24 -37 -51 -30 -62 -53 -36 -79 24 -24 30 -24 56 -6 14 11 16 18 8 26 -8 8 -14 9 -18 1 -10 -15 -36 -14 -36 2 0 6 18 22 40 35 32 18 40 28 40 51 0 40 -54 58 -80 26z"></path><path id="pcnbpLqL5" d="M4042 1452 l-33 -3 7 -57 c9 -70 18 -108 27 -104 4 1 21 2 37 2 21 0 30 5 30 16 0 12 -7 15 -25 12 -14 -3 -26 -1 -26 3 -5 26 -3 34 10 34 24 0 23 23 -1 27 -31 4 -32 42 0 46 21 3 30 17 15 24 -5 2 -23 2 -41 0z"></path><path id="pX3w0HBOX" d="M3095 1398 c-13 -90 -16 -98 -36 -98 -38 0 -18 -19 26 -26 51 -7 67 0 42 19 -14 10 -15 21 -8 72 5 33 7 63 4 68 -11 18 -22 4 -28 -35z"></path><path id="p16ptHDf2K" d="M3929 1433 c-1 -5 0 -23 1 -40 2 -47 -27 -45 -36 2 -6 33 -17 44 -28 27 -2 -4 0 -42 6 -85 8 -55 15 -77 25 -77 11 0 14 10 11 37 -2 29 1 38 12 38 10 0 16 -12 18 -32 2 -22 9 -33 19 -33 13 0 15 10 9 63 -9 80 -16 107 -27 107 -5 0 -9 -3 -10 -7z"></path><path id="p2sDh9fVL" d="M3204 1359 c3 -34 6 -70 6 -80 0 -13 7 -19 23 -19 20 0 26 9 42 63 9 34 20 70 22 80 4 11 0 17 -10 17 -8 0 -17 -9 -20 -20 -3 -11 -10 -20 -17 -20 -7 0 -14 9 -17 20 -3 11 -12 20 -21 20 -12 0 -14 -10 -8 -61z m46 -23 c0 -14 -4 -28 -10 -31 -6 -4 -10 7 -10 24 0 17 5 31 10 31 6 0 10 -11 10 -24z"></path><path id="pRxilY4VM" d="M3738 1409 c-10 -5 -18 -19 -18 -29 0 -23 18 -27 26 -5 4 8 12 15 19 15 26 0 24 -18 -5 -49 -38 -39 -40 -78 -5 -87 31 -8 72 23 55 40 -7 7 -15 4 -24 -10 -12 -15 -17 -17 -27 -7 -10 11 -7 19 19 46 33 34 40 65 20 85 -15 15 -37 15 -60 1z"></path><path id="p1Xx0okV5" d="M3349 1345 c-1 -36 -2 -71 -3 -77 -1 -8 14 -14 35 -16 46 -4 67 18 51 53 -7 14 -8 25 -3 25 18 0 21 33 6 56 -11 18 -25 24 -50 24 l-35 0 -1 -65z m61 14 c0 -10 -7 -19 -15 -19 -9 0 -15 9 -15 25 0 18 4 23 15 19 8 -4 15 -15 15 -25z m-4 -60 c10 -17 -13 -36 -27 -22 -12 12 -4 33 11 33 5 0 12 -5 16 -11z"></path><path id="pq10AX6Z5" d="M3500 1325 c0 -69 3 -85 15 -85 12 0 15 14 15 70 0 68 1 70 25 70 16 0 25 6 25 15 0 11 -11 15 -40 15 l-40 0 0 -85z"></path><path id="pNor8XYMn" d="M3633 1329 c3 -44 8 -83 11 -87 16 -15 23 20 19 91 -4 60 -9 77 -21 77 -12 0 -14 -13 -9 -81z"></path></g></g></svg>