<svg xmlns="http://www.w3.org/2000/svg" xmlns:xlink="http://www.w3.org/1999/xlink" width="766pt" height="232.76pt" viewBox="0 0 766 232.76" version="1.1">
                        <defs>
                            <clipPath id="clip1">
                                <path d="M 433 190 L 459 190 L 459 232.761719 L 433 232.761719 Z M 433 190 "></path>
                            </clipPath>
                            <clipPath id="clip2">
                                <path d="M 545 191 L 571 191 L 571 232.761719 L 545 232.761719 Z M 545 191 "></path>
                            </clipPath>
                        </defs>
                        <g id="surface1">
                            <path style=" stroke:none;fill-rule:nonzero;fill:rgb(50.19989%,51.399231%,52.198792%);fill-opacity:1;" d="M 262.957031 220.375 L 266.566406 220.375 L 266.566406 177.375 L 262.957031 177.375 L 262.957031 220.375 "></path>
                            <path style=" stroke:none;fill-rule:nonzero;fill:rgb(50.19989%,51.399231%,52.198792%);fill-opacity:1;" d="M 275.679688 183.335938 L 279.289063 183.335938 L 279.289063 178.519531 L 275.679688 178.519531 Z M 275.679688 220.375 L 279.289063 220.375 L 279.289063 191.132813 L 275.679688 191.132813 L 275.679688 220.375 "></path>
                            <path style=" stroke:none;fill-rule:nonzero;fill:rgb(50.19989%,51.399231%,52.198792%);fill-opacity:1;" d="M 286.175781 216.132813 C 288.355469 217.222656 290.988281 217.972656 293.800781 217.972656 C 297.238281 217.972656 300.277344 216.078125 300.277344 212.75 C 300.277344 205.8125 286.230469 206.902344 286.230469 198.417969 C 286.230469 192.621094 290.933594 190.445313 295.753906 190.445313 C 297.296875 190.445313 300.394531 190.789063 302.972656 191.765625 L 302.628906 194.917969 C 300.738281 194.0625 298.160156 193.542969 296.148438 193.542969 C 292.429688 193.542969 289.839844 194.691406 289.839844 198.417969 C 289.839844 203.863281 304.234375 203.175781 304.234375 212.75 C 304.234375 218.941406 298.441406 221.0625 294.027344 221.0625 C 291.222656 221.0625 288.40625 220.71875 285.828125 219.6875 L 286.175781 216.132813 "></path>
                            <path style=" stroke:none;fill-rule:nonzero;fill:rgb(50.19989%,51.399231%,52.198792%);fill-opacity:1;" d="M 323.324219 194.230469 L 316.675781 194.230469 L 316.675781 213.148438 C 316.675781 215.789063 317.648438 217.972656 320.574219 217.972656 C 321.949219 217.972656 322.871094 217.679688 323.902344 217.28125 L 324.128906 220.257813 C 323.273438 220.601563 321.496094 221.0625 319.71875 221.0625 C 313.296875 221.0625 313.0625 216.648438 313.0625 211.316406 L 313.0625 194.230469 L 307.328125 194.230469 L 307.328125 191.128906 L 313.0625 191.128906 L 313.0625 184.078125 L 316.675781 182.816406 L 316.675781 191.128906 L 323.324219 191.128906 L 323.324219 194.230469 "></path>
                            <path style=" stroke:none;fill-rule:nonzero;fill:rgb(50.19989%,51.399231%,52.198792%);fill-opacity:1;" d="M 347.640625 203.691406 C 347.640625 198.582031 345.574219 193.539063 340.183594 193.539063 C 334.851563 193.539063 331.582031 198.875 331.582031 203.691406 Z M 349.417969 219.457031 C 346.894531 220.488281 343.628906 221.0625 340.929688 221.0625 C 331.238281 221.0625 327.625 214.523438 327.625 205.757813 C 327.625 196.808594 332.5625 190.445313 339.953125 190.445313 C 348.210938 190.445313 351.59375 197.097656 351.59375 204.949219 L 351.59375 206.789063 L 331.582031 206.789063 C 331.582031 212.980469 334.90625 217.96875 341.214844 217.96875 C 343.851563 217.96875 347.695313 216.878906 349.417969 215.789063 L 349.417969 219.457031 "></path>
                            <path style=" stroke:none;fill-rule:nonzero;fill:rgb(50.19989%,51.399231%,52.198792%);fill-opacity:1;" d="M 358.472656 198.011719 C 358.472656 195.777344 358.472656 193.484375 358.238281 191.132813 L 361.742188 191.132813 L 361.742188 196.347656 L 361.855469 196.347656 C 363.058594 193.714844 365.238281 190.445313 371.316406 190.445313 C 378.539063 190.445313 381.292969 195.265625 381.292969 201.679688 L 381.292969 220.375 L 377.679688 220.375 L 377.679688 202.601563 C 377.679688 197.097656 375.730469 193.539063 370.738281 193.539063 C 364.148438 193.539063 362.085938 199.335938 362.085938 204.207031 L 362.085938 220.375 L 358.472656 220.375 L 358.472656 198.011719 "></path>
                            <path style=" stroke:none;fill-rule:nonzero;fill:rgb(50.19989%,51.399231%,52.198792%);fill-opacity:1;" d="M 390.355469 191.132813 L 393.96875 191.132813 L 393.96875 220.371094 L 390.355469 220.371094 Z M 393.96875 183.335938 L 390.355469 183.335938 L 390.355469 178.519531 L 393.96875 178.519531 L 393.96875 183.335938 "></path>
                            <path style=" stroke:none;fill-rule:nonzero;fill:rgb(50.19989%,51.399231%,52.198792%);fill-opacity:1;" d="M 403.082031 198.011719 C 403.082031 195.777344 403.082031 193.484375 402.847656 191.132813 L 406.347656 191.132813 L 406.347656 196.347656 L 406.464844 196.347656 C 407.667969 193.714844 409.839844 190.445313 415.921875 190.445313 C 423.144531 190.445313 425.902344 195.265625 425.902344 201.679688 L 425.902344 220.375 L 422.285156 220.375 L 422.285156 202.601563 C 422.285156 197.097656 420.339844 193.539063 415.347656 193.539063 C 408.753906 193.539063 406.691406 199.335938 406.691406 204.207031 L 406.691406 220.375 L 403.082031 220.375 L 403.082031 198.011719 "></path>
                            <g clip-path="url(#clip1)" clip-rule="nonzero">
                                <path style=" stroke:none;fill-rule:nonzero;fill:rgb(50.19989%,51.399231%,52.198792%);fill-opacity:1;" d="M 445.621094 217.28125 C 452.164063 217.28125 454.511719 211.085938 454.511719 205.761719 C 454.511719 198.699219 452.445313 193.539063 445.855469 193.539063 C 438.972656 193.539063 437.1875 200.082031 437.1875 205.761719 C 437.1875 211.492188 439.488281 217.28125 445.621094 217.28125 M 458.121094 217.972656 C 458.121094 226.105469 454.453125 232.765625 444.417969 232.765625 C 440.578125 232.765625 437.074219 231.671875 435.589844 231.207031 L 435.878906 227.605469 C 438.113281 228.746094 441.324219 229.667969 444.480469 229.667969 C 453.769531 229.667969 454.566406 222.898438 454.566406 214.644531 L 454.453125 214.644531 C 452.503906 218.886719 449.289063 220.375 445.5625 220.375 C 436.222656 220.375 433.234375 212.230469 433.234375 205.761719 C 433.234375 196.867188 436.679688 190.445313 445.277344 190.445313 C 449.179688 190.445313 451.703125 190.964844 454.398438 194.453125 L 454.511719 194.453125 L 454.511719 191.136719 L 458.121094 191.136719 L 458.121094 217.972656 "></path>
                            </g>
                            <path style=" stroke:none;fill-rule:nonzero;fill:rgb(50.19989%,51.399231%,52.198792%);fill-opacity:1;" d="M 495.390625 194.230469 L 488.734375 194.230469 L 488.734375 213.148438 C 488.734375 215.789063 489.714844 217.972656 492.636719 217.972656 C 494.011719 217.972656 494.9375 217.679688 495.964844 217.28125 L 496.191406 220.257813 C 495.335938 220.601563 493.554688 221.0625 491.78125 221.0625 C 485.359375 221.0625 485.125 216.648438 485.125 211.316406 L 485.125 194.230469 L 479.394531 194.230469 L 479.394531 191.128906 L 485.125 191.128906 L 485.125 184.078125 L 488.734375 182.816406 L 488.734375 191.128906 L 495.390625 191.128906 L 495.390625 194.230469 "></path>
                            <path style=" stroke:none;fill-rule:nonzero;fill:rgb(50.19989%,51.399231%,52.198792%);fill-opacity:1;" d="M 513.277344 217.96875 C 519.585938 217.96875 522.964844 212.519531 522.964844 205.761719 C 522.964844 198.992188 519.585938 193.542969 513.277344 193.542969 C 506.96875 193.542969 503.59375 198.992188 503.59375 205.761719 C 503.59375 212.519531 506.96875 217.96875 513.277344 217.96875 M 513.277344 190.445313 C 522.738281 190.445313 526.921875 197.78125 526.921875 205.761719 C 526.921875 213.722656 522.738281 221.0625 513.277344 221.0625 C 503.816406 221.0625 499.632813 213.722656 499.632813 205.761719 C 499.632813 197.78125 503.816406 190.445313 513.277344 190.445313 "></path>
                            <g clip-path="url(#clip2)" clip-rule="nonzero">
                                <path style=" stroke:none;fill-rule:nonzero;fill:rgb(50.19989%,51.399231%,52.198792%);fill-opacity:1;" d="M 557.828125 215.5 L 557.886719 215.5 L 566.316406 191.136719 L 570.097656 191.136719 L 558.402344 224.730469 C 557.03125 228.746094 554.960938 232.761719 550.890625 232.761719 C 549.574219 232.761719 548.191406 232.589844 546.996094 232.304688 L 547.335938 229.203125 C 548.023438 229.433594 548.707031 229.667969 550.027344 229.667969 C 553.128906 229.667969 554.160156 227.085938 555.304688 223.300781 L 556.050781 220.71875 L 545.675781 191.136719 L 549.632813 191.136719 L 557.828125 215.5 "></path>
                            </g>
                            <path style=" stroke:none;fill-rule:nonzero;fill:rgb(50.19989%,51.399231%,52.198792%);fill-opacity:1;" d="M 586.554688 217.96875 C 592.859375 217.96875 596.238281 212.519531 596.238281 205.761719 C 596.238281 198.992188 592.859375 193.542969 586.554688 193.542969 C 580.246094 193.542969 576.867188 198.992188 576.867188 205.761719 C 576.867188 212.519531 580.246094 217.96875 586.554688 217.96875 M 586.554688 190.445313 C 596.015625 190.445313 600.199219 197.78125 600.199219 205.761719 C 600.199219 213.722656 596.015625 221.0625 586.554688 221.0625 C 577.089844 221.0625 572.910156 213.722656 572.910156 205.761719 C 572.910156 197.78125 577.089844 190.445313 586.554688 190.445313 "></path>
                            <path style=" stroke:none;fill-rule:nonzero;fill:rgb(50.19989%,51.399231%,52.198792%);fill-opacity:1;" d="M 629.839844 213.492188 C 629.839844 215.726563 629.839844 218.023438 630.070313 220.375 L 626.570313 220.375 L 626.570313 215.160156 L 626.457031 215.160156 C 625.25 217.796875 623.078125 221.0625 616.996094 221.0625 C 609.773438 221.0625 607.019531 216.246094 607.019531 209.832031 L 607.019531 191.128906 L 610.636719 191.128906 L 610.636719 208.90625 C 610.636719 214.414063 612.578125 217.972656 617.570313 217.972656 C 624.164063 217.972656 626.230469 212.175781 626.230469 207.300781 L 626.230469 191.128906 L 629.839844 191.128906 L 629.839844 213.492188 "></path>
                            <path style=" stroke:none;fill-rule:nonzero;fill:rgb(50.19989%,51.399231%,52.198792%);fill-opacity:1;" d="M 638.898438 197.667969 C 638.898438 194.457031 638.898438 193.253906 638.664063 191.132813 L 642.28125 191.132813 L 642.28125 196.753906 L 642.394531 196.753906 C 643.714844 193.484375 646.179688 190.445313 649.910156 190.445313 C 650.769531 190.445313 651.800781 190.613281 652.429688 190.789063 L 652.429688 194.578125 C 651.679688 194.34375 650.710938 194.230469 649.792969 194.230469 C 644.058594 194.230469 642.511719 200.652344 642.511719 205.925781 L 642.511719 220.375 L 638.898438 220.375 L 638.898438 197.667969 "></path>
                            <path style=" stroke:none;fill-rule:nonzero;fill:rgb(50.19989%,51.399231%,52.198792%);fill-opacity:1;" d="M 671.691406 216.132813 C 673.871094 217.222656 676.507813 217.972656 679.3125 217.972656 C 682.757813 217.972656 685.796875 216.078125 685.796875 212.75 C 685.796875 205.8125 671.757813 206.902344 671.757813 198.417969 C 671.757813 192.621094 676.449219 190.445313 681.265625 190.445313 C 682.816406 190.445313 685.914063 190.789063 688.492188 191.765625 L 688.144531 194.917969 C 686.257813 194.0625 683.679688 193.542969 681.667969 193.542969 C 677.941406 193.542969 675.359375 194.691406 675.359375 198.417969 C 675.359375 203.863281 689.753906 203.175781 689.753906 212.75 C 689.753906 218.941406 683.964844 221.0625 679.546875 221.0625 C 676.742188 221.0625 673.925781 220.71875 671.347656 219.6875 L 671.691406 216.132813 "></path>
                            <path style=" stroke:none;fill-rule:nonzero;fill:rgb(50.19989%,51.399231%,52.198792%);fill-opacity:1;" d="M 696.234375 177.375 L 699.847656 177.375 L 699.847656 203.117188 L 712.925781 191.136719 L 717.5625 191.136719 L 703.289063 204.09375 L 719.28125 220.375 L 714.296875 220.375 L 699.847656 205.355469 L 699.847656 220.375 L 696.234375 220.375 L 696.234375 177.375 "></path>
                            <path style=" stroke:none;fill-rule:nonzero;fill:rgb(50.19989%,51.399231%,52.198792%);fill-opacity:1;" d="M 724.902344 191.132813 L 728.511719 191.132813 L 728.511719 220.371094 L 724.902344 220.371094 Z M 728.511719 183.335938 L 724.902344 183.335938 L 724.902344 178.519531 L 728.511719 178.519531 L 728.511719 183.335938 "></path>
                            <path style=" stroke:none;fill-rule:nonzero;fill:rgb(50.19989%,51.399231%,52.198792%);fill-opacity:1;" d="M 737.632813 198.011719 C 737.632813 195.777344 737.632813 193.484375 737.398438 191.132813 L 740.898438 191.132813 L 740.898438 196.347656 L 741.011719 196.347656 C 742.21875 193.714844 744.394531 190.445313 750.46875 190.445313 C 757.699219 190.445313 760.449219 195.265625 760.449219 201.679688 L 760.449219 220.375 L 756.835938 220.375 L 756.835938 202.601563 C 756.835938 197.097656 754.882813 193.539063 749.902344 193.539063 C 743.304688 193.539063 741.238281 199.335938 741.238281 204.207031 L 741.238281 220.375 L 737.632813 220.375 L 737.632813 198.011719 "></path>
                            <path style=" stroke:none;fill-rule:evenodd;fill:rgb(50.19989%,51.399231%,52.198792%);fill-opacity:1;" d="M 723.359375 96.890625 C 719.398438 97.1875 715.699219 97.808594 712.339844 98.769531 C 703.746094 101.234375 696.542969 106.511719 696.542969 117.234375 C 696.542969 130.136719 705.261719 134.777344 713.265625 134.777344 C 733.910156 134.777344 744.617188 122.710938 745.789063 120.921875 L 745.789063 113.523438 C 745.789063 108.035156 745.980469 102.871094 746.019531 97.402344 C 738.914063 96.75 730.785156 96.332031 723.359375 96.890625 M 765.996094 145.898438 C 764.480469 147.226563 759.257813 148.25 755.589844 148.25 C 749.621094 148.25 746.558594 140.746094 746.558594 136.316406 C 737.867188 143.558594 725.820313 148.910156 712.40625 148.910156 C 692.664063 148.910156 678.222656 138.839844 678.222656 118.226563 C 678.222656 102.367188 686.253906 93.917969 695.683594 89.484375 C 708.230469 83.582031 728.070313 82.9375 745.789063 84.929688 C 745.730469 82.101563 745.792969 76.882813 745.792969 74.210938 C 745.792969 61.324219 743.082031 53.578125 726.058594 53.578125 C 712.054688 53.578125 695.34375 56.984375 691.007813 57.59375 C 690.085938 55.027344 687.050781 49.445313 688.1875 46.683594 C 688.597656 45.671875 690.578125 44.722656 691.730469 44.265625 C 698.058594 41.757813 706.304688 39.789063 714.074219 38.816406 C 717.269531 38.414063 720.542969 38.203125 723.996094 38.054688 C 730.566406 37.761719 736.890625 38.4375 741.863281 39.847656 C 754.40625 43.417969 761.683594 52.191406 763.253906 66.078125 C 763.578125 68.882813 763.605469 71.832031 763.605469 75.019531 C 763.605469 89.867188 763.492188 105.96875 763.492188 121.367188 C 763.492188 124.476563 763.347656 127.617188 763.492188 130.636719 C 763.769531 136.691406 764.503906 140.730469 765.996094 145.898438 "></path>
                            <path style=" stroke:none;fill-rule:evenodd;fill:rgb(50.19989%,51.399231%,52.198792%);fill-opacity:1;" d="M 108.230469 63.902344 C 111.882813 58.023438 117.464844 54.875 125.390625 54.289063 C 126.332031 54.222656 127.265625 54.191406 128.160156 54.191406 C 136.355469 54.191406 142.542969 57.183594 146.511719 63.085938 C 149.558594 67.625 151.820313 74.695313 152.238281 84.242188 L 102.769531 84.242188 C 103.441406 75.332031 105.355469 68.523438 108.230469 63.902344 M 168.183594 128.273438 C 161.976563 129.398438 148.46875 133.066406 134.75 133.066406 C 126.585938 133.066406 120.375 131.796875 115.679688 129.382813 C 107.464844 125.179688 102.796875 115.648438 102.796875 99.308594 L 164.554688 99.308594 C 168.472656 99.308594 170.453125 97.15625 170.519531 94.683594 C 170.773438 84.941406 169.953125 76.367188 168.160156 69.160156 C 166.058594 60.710938 162.523438 53.863281 157.640625 48.816406 C 150.636719 41.570313 140.796875 37.898438 128.394531 37.898438 C 126.980469 37.898438 125.503906 37.945313 124.023438 38.042969 C 110.171875 38.921875 99.3125 44.222656 92.621094 53.367188 C 86.300781 62 83.167969 74.359375 82.746094 92.253906 C 82.5625 100.046875 83.238281 107.371094 84.753906 114.023438 C 86.382813 121.171875 88.910156 127.1875 92.28125 131.890625 C 96.738281 138.109375 102.949219 142.710938 110.75 145.578125 C 117.429688 148.035156 125.488281 149.277344 134.71875 149.277344 C 143.335938 149.277344 154.644531 147.292969 163.917969 144.449219 C 166.613281 143.617188 167.769531 142.222656 168.269531 139.679688 C 168.796875 136.980469 168.519531 131.65625 168.183594 128.273438 "></path>
                            <path style=" stroke:none;fill-rule:evenodd;fill:rgb(50.19989%,51.399231%,52.198792%);fill-opacity:1;" d="M 388 63.902344 C 391.660156 58.023438 397.234375 54.875 405.160156 54.289063 C 406.101563 54.222656 407.035156 54.191406 407.929688 54.191406 C 416.132813 54.191406 422.316406 57.183594 426.277344 63.085938 C 429.328125 67.625 431.589844 74.695313 432.011719 84.242188 L 382.535156 84.242188 C 383.210938 75.332031 385.128906 68.523438 388 63.902344 M 447.949219 128.273438 C 441.75 129.398438 428.238281 133.066406 414.515625 133.066406 C 406.355469 133.066406 400.148438 131.796875 395.449219 129.382813 C 387.238281 125.179688 382.566406 115.648438 382.566406 99.308594 L 444.328125 99.308594 C 448.242188 99.308594 450.226563 97.15625 450.289063 94.683594 C 450.546875 84.941406 449.71875 76.367188 447.933594 69.160156 C 445.832031 60.710938 442.296875 53.863281 437.410156 48.816406 C 430.40625 41.570313 420.570313 37.898438 408.167969 37.898438 C 406.746094 37.898438 405.28125 37.945313 403.792969 38.042969 C 389.941406 38.921875 379.085938 44.222656 372.390625 53.367188 C 366.074219 62 362.9375 74.359375 362.519531 92.253906 C 362.332031 100.046875 363.011719 107.371094 364.523438 114.023438 C 366.15625 121.171875 368.683594 127.1875 372.050781 131.890625 C 376.511719 138.109375 382.71875 142.710938 390.519531 145.578125 C 397.199219 148.035156 405.261719 149.277344 414.484375 149.277344 C 423.105469 149.277344 434.414063 147.292969 443.683594 144.449219 C 446.386719 143.617188 447.542969 142.222656 448.039063 139.679688 C 448.566406 136.980469 448.292969 131.65625 447.949219 128.273438 "></path>
                            <path style=" stroke:none;fill-rule:evenodd;fill:rgb(50.19989%,51.399231%,52.198792%);fill-opacity:1;" d="M 248.753906 95.621094 C 244.722656 91.125 239.246094 87.613281 231.503906 84.558594 C 228.023438 83.183594 224.351563 82.136719 220.796875 81.117188 C 215.472656 79.589844 210.445313 78.152344 206.277344 75.777344 C 204.636719 74.839844 196.601563 69.730469 199.925781 60.886719 C 202.210938 54.808594 212.871094 53.535156 221.417969 53.535156 C 228.90625 53.535156 236.792969 54.257813 247.695313 56.179688 L 250.476563 56.664063 C 250.476563 56.664063 252.835938 51.402344 253.519531 47.433594 C 253.914063 45.144531 252.800781 43.070313 250.136719 42.101563 C 246.386719 40.738281 231.058594 37.859375 219.875 37.859375 C 211.492188 37.859375 204.367188 38.777344 198.6875 40.585938 C 191.613281 42.847656 186.546875 46.550781 183.625 51.601563 C 179.066406 59.480469 179.175781 74.65625 186.144531 83.167969 C 192.171875 90.539063 202.160156 93.640625 211.820313 96.644531 C 221.976563 99.800781 231.570313 102.769531 235.40625 110.164063 C 239.078125 117.21875 236.851563 125.269531 232.679688 128.597656 C 228.855469 131.652344 222.273438 133.269531 213.121094 133.269531 C 199.15625 133.269531 183.636719 128.9375 179.554688 128.140625 C 179.34375 129.761719 178.8125 135.453125 179.5 139.808594 C 179.84375 141.964844 181.199219 143.492188 183.878906 144.28125 C 189.65625 145.996094 201.4375 149.039063 213.113281 149.039063 C 225.726563 149.039063 235.734375 146.914063 242.859375 142.722656 C 251.878906 137.429688 256.449219 128.917969 256.449219 117.441406 C 256.449219 108.671875 253.859375 101.324219 248.753906 95.621094 "></path>
                            <path style=" stroke:none;fill-rule:evenodd;fill:rgb(50.19989%,51.399231%,52.198792%);fill-opacity:1;" d="M 69.589844 95.621094 C 65.5625 91.125 60.082031 87.613281 52.339844 84.558594 C 48.859375 83.183594 45.1875 82.136719 41.636719 81.117188 C 36.3125 79.589844 31.285156 78.152344 27.121094 75.777344 C 25.472656 74.839844 17.4375 69.730469 20.761719 60.886719 C 23.046875 54.808594 33.714844 53.535156 42.261719 53.535156 C 49.742188 53.535156 57.628906 54.257813 68.535156 56.179688 L 71.3125 56.664063 C 71.3125 56.664063 73.671875 51.402344 74.359375 47.433594 C 74.757813 45.144531 73.632813 43.070313 70.972656 42.101563 C 67.230469 40.738281 51.898438 37.859375 40.710938 37.859375 C 32.328125 37.859375 25.203125 38.777344 19.53125 40.585938 C 12.449219 42.847656 7.382813 46.550781 4.460938 51.601563 C -0.0976563 59.480469 0.015625 74.65625 6.980469 83.167969 C 13.011719 90.539063 22.996094 93.640625 32.65625 96.644531 C 42.816406 99.800781 52.410156 102.769531 56.246094 110.164063 C 59.910156 117.21875 57.691406 125.269531 53.515625 128.597656 C 49.691406 131.652344 43.113281 133.269531 33.960938 133.269531 C 19.992188 133.269531 4.480469 128.9375 0.390625 128.140625 C 0.179688 129.761719 -0.347656 135.453125 0.34375 139.808594 C 0.679688 141.964844 2.035156 143.492188 4.714844 144.28125 C 10.492188 145.996094 22.273438 149.039063 33.949219 149.039063 C 46.566406 149.039063 56.570313 146.914063 63.699219 142.722656 C 72.714844 137.429688 77.285156 128.917969 77.285156 117.441406 C 77.285156 108.671875 74.699219 101.324219 69.589844 95.621094 "></path>
                            <path style=" stroke:none;fill-rule:evenodd;fill:rgb(50.19989%,51.399231%,52.198792%);fill-opacity:1;" d="M 312.292969 55.019531 C 302.964844 55.019531 295.148438 57.585938 290.800781 62.050781 C 285.144531 67.847656 281.789063 80.140625 282.035156 94.132813 C 282.277344 108.039063 286.050781 120.140625 291.867188 125.695313 C 297.054688 130.660156 303.625 132.972656 312.550781 132.972656 C 317.890625 132.972656 323.332031 131.09375 327.570313 127.816406 C 331.203125 125.007813 333.402344 121.480469 333.402344 118.605469 L 333.402344 59.53125 C 327.679688 56.699219 319.832031 55.019531 312.292969 55.019531 M 307.144531 148.515625 C 299.753906 148.515625 292.347656 146.59375 285.730469 142.945313 C 279.195313 139.34375 273.894531 134.34375 270.390625 128.464844 C 267.203125 123.109375 264.914063 116.15625 263.570313 107.789063 C 262.398438 100.5 262.015625 92.324219 262.449219 84.144531 C 263.175781 70.117188 267.195313 58.957031 274.398438 50.972656 C 282.117188 42.417969 292.96875 38.082031 306.660156 38.082031 C 308.65625 38.082031 310.675781 38.183594 312.777344 38.363281 C 320.855469 39.089844 326.824219 41.246094 333.402344 43.753906 L 333.402344 0.00390625 L 350.800781 0.00390625 L 350.800781 126.84375 C 350.800781 132.085938 351.734375 139.683594 352.648438 143.433594 L 353.269531 146.078125 L 350.6875 146.980469 C 349 147.566406 346.425781 148.265625 343.753906 148.265625 C 340.605469 148.265625 338.105469 147.316406 336.316406 145.433594 C 335.246094 144.304688 334.476563 142.882813 334.039063 141.191406 C 327.289063 146.425781 319.410156 148.515625 307.144531 148.515625 "></path>
                            <path style=" stroke:none;fill-rule:evenodd;fill:rgb(50.19989%,51.399231%,52.198792%);fill-opacity:1;" d="M 661.269531 148.046875 C 657.890625 148.046875 655.316406 147.164063 653.421875 145.277344 C 651.519531 143.382813 650.660156 140.761719 650.660156 137.347656 L 650.660156 95.988281 C 650.660156 78.78125 651.085938 62.535156 640.929688 57.164063 C 638.070313 55.644531 634.296875 54.871094 630.257813 54.871094 C 621.34375 54.871094 611.703125 58.546875 606.324219 62.144531 L 606.324219 148.046875 L 587.515625 148.046875 L 587.515625 77.96875 C 587.515625 70.582031 587.765625 63.609375 584.886719 60.320313 C 581.753906 56.765625 576.515625 54.949219 569.039063 54.949219 C 559.53125 54.949219 549.90625 57.816406 544.53125 59.800781 L 544.53125 148.046875 L 525.722656 148.046875 L 525.722656 53.824219 C 525.722656 51.597656 526.527344 48.921875 529.363281 47.410156 C 531.359375 46.34375 533.148438 45.488281 535.429688 44.636719 C 546.171875 40.605469 559.109375 38.195313 570.085938 38.195313 C 581.976563 38.195313 591.527344 41.003906 597.867188 46.324219 C 607.28125 41.339844 620.363281 38.152344 631.636719 38.152344 C 640.140625 38.152344 647.574219 39.925781 653.148438 43.265625 C 657.289063 45.765625 661.222656 49.777344 663.855469 54.269531 C 669.628906 64.085938 669.472656 76.890625 669.472656 91.550781 L 669.472656 126.859375 C 669.472656 140.808594 670.8125 144.546875 671.15625 145.984375 C 669.203125 147.144531 665.601563 148.046875 661.289063 148.046875 L 661.269531 148.046875 "></path>
                            <path style=" stroke:none;fill-rule:evenodd;fill:rgb(50.19989%,51.399231%,52.198792%);fill-opacity:1;" d="M 517.800781 44.417969 C 515.636719 42.503906 510.769531 40.613281 503.003906 40.613281 C 493.859375 40.613281 485.417969 45.214844 480.046875 50.070313 L 480.046875 41.53125 C 480.046875 39.785156 479.347656 37.53125 473.445313 38.511719 C 466.945313 39.601563 461.234375 41.496094 461.234375 44.902344 L 461.234375 146.703125 L 480.046875 146.703125 L 480.046875 68.882813 C 482.730469 63.03125 494.460938 56.191406 506.214844 56.191406 C 509.519531 56.191406 512.558594 56.441406 515.3125 56.917969 C 515.3125 56.917969 516.976563 57.21875 517.558594 57.351563 C 518.414063 55.828125 519.464844 52.390625 519.738281 50.507813 C 520.0625 48.308594 519.707031 46.117188 517.800781 44.417969 "></path>
                        </g>
                    </svg>