<svg class="img-fluid" id="outputsvg" xmlns="http://www.w3.org/2000/svg" style="transform: none; transform-origin: 50% 50%; cursor: move; max-height: none;" width="1196" height="500" viewBox="0 0 11960 5000"><g id="l1s0alpPyarH6bcQZjH5xgB" fill="rgb(54,58,144)" style="transform: none;"><g><path id="pa1LpRYkT" d="M214 4962 c-73 -48 -154 -135 -188 -204 l-26 -52 0 -2199 0 -2199 33 -61 c44 -84 127 -165 213 -210 l72 -37 5660 0 5659 0 73 36 c89 45 173 126 217 211 l33 61 0 2202 0 2203 -34 61 c-42 74 -101 136 -180 187 l-59 39 -5707 0 -5707 0 -59 -38z m5121 -712 c218 -44 422 -129 613 -256 203 -135 435 -383 543 -579 22 -41 45 -75 50 -75 5 0 9 -8 9 -17 0 -10 11 -41 24 -69 l24 -52 -36 -6 c-21 -3 -90 -6 -154 -6 -64 0 -128 -4 -143 -10 -14 -5 -98 -60 -185 -121 -154 -106 -160 -112 -160 -145 l0 -34 103 0 c255 0 571 21 690 46 139 28 147 29 147 8 0 -15 13 -16 113 -10 123 7 388 29 621 51 82 8 150 14 150 12 1 -1 0 -455 -2 -1009 l-2 -1008 -510 0 -510 0 0 535 0 535 -49 0 -48 0 -18 -47 c-22 -59 -89 -193 -121 -245 -13 -21 -24 -47 -24 -58 0 -11 -6 -20 -12 -20 -7 -1 -38 -35 -67 -76 -204 -281 -518 -509 -853 -618 -318 -104 -604 -105 -928 -4 -127 39 -353 153 -470 236 -115 81 -325 288 -400 394 -30 43 -60 78 -67 78 -7 0 -13 8 -13 17 0 9 -30 78 -68 152 -37 75 -73 151 -79 169 -11 31 -15 33 -49 30 l-38 -3 -27 -112 c-118 -474 -402 -804 -820 -951 -458 -162 -1002 -90 -1360 180 -144 108 -285 280 -369 447 -43 87 -105 275 -130 398 -11 56 -25 166 -30 245 -13 197 -13 1168 0 1168 6 0 117 -27 248 -59 202 -51 431 -102 675 -151 l57 -11 0 -483 c0 -445 2 -489 19 -559 11 -42 27 -90 37 -108 30 -59 102 -125 167 -154 55 -25 74 -28 167 -29 58 0 123 5 145 12 97 28 184 112 224 218 34 88 41 192 41 585 0 354 1 379 18 379 9 0 102 -11 206 -25 104 -14 212 -25 240 -25 28 0 69 -5 91 -10 52 -13 491 -56 765 -75 118 -8 250 -17 293 -20 l77 -6 0 35 c0 34 -5 38 -163 149 l-164 114 -144 7 c-79 4 -145 8 -146 10 -4 3 41 108 58 136 9 14 33 54 54 90 133 226 373 466 602 603 131 79 312 153 481 197 168 43 423 48 607 10z m2896 10 c240 -49 459 -166 648 -346 118 -112 124 -112 240 -1 258 245 582 379 877 364 436 -23 850 -238 1073 -557 l52 -75 -43 -7 c-669 -116 -2592 -338 -2923 -338 -49 0 -128 -7 -175 -14 -109 -19 -1237 -92 -1248 -81 -7 6 32 164 59 243 134 383 485 680 930 787 203 49 356 56 510 25z m-6571 -464 l0 -403 -22 3 c-13 2 -113 18 -223 34 -185 28 -588 98 -697 122 l-48 10 0 319 0 319 495 0 495 0 0 -404z m1780 -86 l0 -490 -32 0 c-51 0 -448 30 -708 54 l-235 21 -3 453 -2 452 490 0 490 0 0 -490z m7753 -218 c15 -37 39 -112 54 -167 l28 -100 3 -1127 3 -1128 -511 0 -510 0 0 983 c0 598 -4 1009 -10 1051 -23 155 -111 260 -235 281 -22 4 -47 9 -55 12 -8 3 158 40 370 83 212 43 484 100 605 128 121 28 223 51 226 51 3 1 18 -30 32 -67z m-1578 -279 c-46 -44 -82 -121 -95 -200 -6 -34 -10 -469 -10 -1050 l0 -993 -510 0 -509 0 -3 1033 c-2 567 -7 1040 -11 1049 -11 21 -37 16 368 73 182 26 429 64 550 85 282 48 266 48 220 3z"></path><path id="p16VkqNpxV" d="M4874 3290 c-78 -20 -160 -58 -212 -97 l-34 -25 -196 6 c-109 3 -259 9 -334 12 l-138 6 0 -34 0 -34 171 -80 c162 -75 209 -106 209 -140 0 -10 14 -14 50 -14 38 0 50 -4 50 -15 0 -10 10 -15 31 -15 26 0 42 11 91 65 74 80 173 147 280 188 77 29 92 31 208 31 117 0 131 -2 210 -32 149 -56 275 -159 352 -287 29 -48 37 -54 67 -55 l34 0 -5 50 c-5 49 -5 50 23 50 24 0 29 4 29 24 0 44 36 70 199 146 160 74 161 74 161 107 l0 32 -313 -6 -314 -6 -44 30 c-69 48 -125 73 -206 94 -101 25 -270 25 -369 -1z"></path><path id="prMImnS0K" d="M6650 2095 c0 -45 0 -45 35 -45 35 0 35 0 35 45 0 45 0 45 -35 45 -35 0 -35 0 -35 -45z"></path></g></g><g id="l2GS6yfKqFhaUyqSJDiqRCK" fill="rgb(255,255,255)" style="transform: none;"><g><path id="p1HVcvaGdo" d="M1 4783 c1 -196 2 -213 13 -166 39 159 166 302 321 360 l60 22 -197 0 -198 1 1 -217z"></path><path id="psUHq6KwZ" d="M11625 4977 c154 -58 282 -199 319 -353 14 -57 14 -52 15 159 l1 217 -197 -1 -198 0 60 -22z"></path><path id="pcNsfHgOy" d="M11085 3614 l-50 -13 60 6 c33 3 67 9 75 14 23 13 -26 9 -85 -7z"></path><path id="ps8QqMCk1" d="M10975 3554 c-755 -174 -1558 -318 -2512 -449 -24 -4 -43 -8 -43 -9 0 -2 8 -23 18 -47 16 -41 17 -120 20 -1076 l3 -1033 539 0 540 0 0 993 c0 581 4 1016 10 1050 18 115 77 205 160 247 62 32 166 45 245 31 83 -15 128 -37 177 -88 47 -49 75 -112 88 -199 6 -42 10 -453 10 -1051 l0 -983 540 0 541 0 -3 1158 -3 1157 -28 102 c-36 130 -79 238 -98 240 -8 0 -99 -19 -204 -43z"></path><path id="pZPvNTW1h" d="M640 2919 c0 -765 12 -895 100 -1160 45 -137 82 -214 156 -326 173 -261 433 -440 759 -521 299 -76 660 -60 944 40 418 148 711 489 821 958 13 52 27 99 31 105 6 5 14 -5 21 -25 7 -19 43 -96 80 -170 63 -125 66 -136 51 -152 -15 -17 -15 -18 3 -19 10 -1 24 -2 30 -3 6 0 40 -39 74 -86 83 -113 273 -299 390 -382 109 -78 338 -194 455 -232 462 -149 938 -91 1362 165 179 108 372 285 494 453 31 44 64 77 77 81 19 5 21 9 12 20 -9 10 -6 22 13 52 33 53 100 187 122 246 12 33 23 47 36 47 18 0 19 -20 19 -535 l0 -535 540 0 540 0 0 769 c0 724 1 770 18 774 16 4 16 5 0 6 -17 1 -18 18 -17 214 0 116 4 236 8 265 4 29 6 54 4 55 -1 2 -35 0 -74 -4 -84 -9 -524 -48 -624 -54 -38 -3 -99 -7 -135 -10 l-65 -5 50 20 50 20 -70 -6 c-54 -4 -178 -42 -543 -162 -496 -165 -502 -166 -510 -114 -2 13 6 27 22 37 14 9 146 41 293 71 399 81 373 74 373 97 0 19 -5 20 -97 14 -54 -4 -190 -10 -303 -13 -190 -7 -204 -6 -191 9 25 31 -45 21 -94 -13 -53 -36 -58 -37 -83 -5 -22 28 -52 33 -52 10 0 -11 -11 -15 -40 -15 -45 0 -46 -3 -25 -53 23 -55 18 -57 -12 -7 -38 63 -39 35 -3 -67 66 -185 80 -271 60 -380 -60 -331 -346 -577 -670 -576 -150 1 -308 67 -431 181 -112 104 -185 228 -213 365 -30 145 -13 253 65 413 27 56 49 114 49 129 l0 27 -20 -23 c-14 -17 -18 -19 -14 -6 5 15 -1 17 -50 17 -43 0 -56 3 -56 15 0 25 -24 17 -42 -15 -10 -17 -24 -33 -32 -36 -8 -3 -42 13 -76 36 -39 26 -78 44 -104 48 l-41 5 23 -19 c24 -20 22 -20 -170 -7 -317 20 -776 63 -880 83 -53 10 -105 16 -115 14 -11 -3 -124 8 -251 25 -127 17 -236 31 -241 31 -8 0 -11 -98 -11 -305 0 -284 -1 -305 -17 -305 -17 -1 -17 -1 0 -14 20 -16 23 -101 6 -222 -20 -142 -78 -248 -167 -305 -62 -39 -112 -52 -204 -51 -99 0 -178 34 -242 102 -55 59 -72 92 -97 187 -17 70 -19 114 -19 559 l0 483 -57 11 c-304 61 -765 168 -970 226 l-23 6 0 -553z m3213 -88 c187 -38 349 -77 363 -86 16 -10 24 -24 22 -37 -8 -51 -21 -49 -385 74 -192 64 -346 117 -343 117 3 0 157 -30 343 -68z m339 -318 c49 -44 -1 -82 -102 -76 -36 2 -283 12 -550 24 -267 11 -486 22 -487 23 -2 1 140 8 315 15 174 7 382 16 462 21 267 13 341 12 362 -7z m2283 -3 c237 -11 468 -20 514 -20 178 0 61 -10 -304 -25 -209 -9 -463 -20 -565 -24 -152 -7 -189 -6 -207 5 -27 17 -29 40 -6 66 21 23 27 23 568 -2z m-2251 -229 c23 -25 13 -56 -22 -69 -27 -11 -668 -143 -687 -142 -12 1 665 229 681 229 6 1 19 -8 28 -18z m2018 -93 c186 -62 336 -113 334 -115 -4 -4 -647 127 -676 138 -41 16 -53 43 -29 68 11 11 23 21 27 21 4 0 159 -50 344 -112z m-1928 -117 c39 -43 23 -54 -264 -186 -80 -37 -149 -70 -155 -73 -5 -3 -7 -2 -4 1 11 13 392 277 399 277 4 0 15 -9 24 -19z m1698 -117 c101 -70 188 -131 193 -136 13 -12 -50 16 -210 92 -71 34 -149 70 -172 81 -49 22 -63 52 -37 80 10 11 24 17 31 15 7 -3 95 -62 195 -132z m-1544 -90 c2 -15 -34 -49 -139 -133 -78 -62 -138 -107 -134 -100 13 22 165 211 198 246 28 30 33 32 51 19 12 -7 22 -22 24 -32z m1312 -74 c147 -183 147 -183 -7 -60 -86 69 -143 121 -143 131 0 10 10 25 22 33 27 19 29 18 128 -104z m-1142 -42 c7 -7 12 -18 12 -26 0 -8 -41 -69 -92 -136 -112 -148 -114 -151 -93 -101 9 22 35 85 58 140 22 55 47 108 55 118 17 20 43 22 60 5z m881 -1 c12 -15 132 -290 128 -294 -6 -5 -197 255 -197 269 0 33 47 51 69 25z m-671 -90 l22 -23 -61 -144 c-34 -80 -64 -147 -67 -150 -5 -5 0 51 20 203 7 58 17 96 30 112 24 31 29 31 56 2z m460 -1 c14 -18 23 -61 36 -166 10 -78 16 -144 14 -146 -4 -3 -31 59 -115 263 -12 30 -11 34 9 53 28 26 32 25 56 -4z m-227 -37 c17 -23 16 -31 -4 -176 -12 -84 -24 -153 -27 -153 -3 0 -15 71 -27 157 l-23 157 22 23 c25 27 35 26 59 -8z"></path><path id="piBHhDP8B" d="M11545 1464 c-148 -52 -216 -235 -140 -374 55 -100 145 -147 263 -137 143 11 255 147 239 290 -21 170 -199 279 -362 221z m185 -35 c60 -27 88 -54 116 -114 111 -235 -183 -448 -366 -265 -71 70 -90 170 -49 260 27 60 54 88 114 116 62 29 125 30 185 3z"></path><path id="pquQZMURW" d="M11528 1340 c21 -9 22 -14 22 -135 0 -102 -3 -125 -14 -125 -8 0 -18 -4 -21 -10 -4 -6 28 -10 90 -10 89 0 98 2 120 25 14 13 25 36 25 50 0 24 -25 58 -49 66 -13 5 43 116 68 137 13 10 10 12 -24 10 -38 -3 -41 -6 -70 -63 -22 -43 -36 -61 -52 -63 -22 -3 -23 0 -23 52 0 42 4 57 18 65 13 8 1 10 -48 10 -49 0 -59 -3 -42 -9z m136 -151 c57 -26 35 -109 -29 -109 l-35 0 0 60 c0 66 10 73 64 49z"></path><path id="pidTVgBSX" d="M1 223 l-1 -223 5980 0 5980 0 -1 223 c0 213 -1 220 -15 168 -47 -176 -192 -320 -369 -366 -53 -13 -657 -15 -5600 -15 -4652 0 -5548 2 -5591 14 -174 46 -321 193 -368 367 -14 52 -15 45 -15 -168z"></path></g></g><g id="l29Yuau3DdV9C1L39NT5jPi" fill="rgb(226,235,181)" style="transform: none;"><g><path id="pHS9GBX5G" d="M4833 4295 c-210 -32 -437 -114 -616 -222 -229 -137 -469 -377 -602 -603 -21 -36 -44 -75 -51 -87 -10 -15 -20 -20 -36 -16 -22 4 -22 4 -5 -10 18 -15 17 -18 -12 -85 -17 -39 -31 -75 -31 -80 0 -9 158 -22 262 -22 35 0 58 -6 75 -20 22 -17 41 -20 122 -20 90 1 94 2 71 16 -23 14 -19 14 55 10 44 -3 195 -8 337 -12 l256 -6 34 25 c203 153 507 155 727 4 l44 -30 315 5 c264 4 311 3 291 -8 -21 -12 -13 -13 71 -14 77 0 104 4 135 20 32 17 59 20 155 20 63 0 138 3 167 6 l52 7 -18 46 c-11 25 -27 66 -37 90 -18 42 -17 44 2 58 18 15 18 15 -8 9 -24 -5 -29 -1 -67 69 -108 196 -340 444 -543 579 -191 127 -394 212 -613 257 -132 27 -402 34 -532 14z"></path><path id="p99LO48gy" d="M7865 4299 c-530 -68 -960 -393 -1109 -839 -31 -91 -70 -279 -61 -288 11 -12 1177 63 1317 84 59 9 119 14 134 11 68 -13 1190 100 1924 193 464 60 1095 152 1105 162 12 12 -129 202 -210 283 -245 245 -583 386 -965 402 -114 4 -164 2 -235 -11 -253 -48 -479 -166 -677 -355 l-88 -83 -89 85 c-299 284 -656 405 -1046 356z"></path><path id="p14ZTJOZcj" d="M640 3881 l0 -349 22 -5 c107 -27 812 -145 967 -163 l61 -7 0 437 0 436 -525 0 -525 0 0 -349z"></path><path id="ph8Zqt61F" d="M2432 3748 l3 -483 237 -22 c131 -11 342 -28 470 -37 128 -9 254 -18 281 -21 l47 -4 0 106 c0 93 2 104 15 93 9 -7 15 -8 15 -2 0 5 -7 12 -15 16 -13 5 -15 61 -15 421 l0 415 -520 0 -520 0 2 -482z"></path></g></g><g id="l6FD0PIy5BbPwAYkceQEPW1" fill="rgb(243,194,47)" style="transform: none;"><g><path id="pnaD1yxLJ" d="M3477 3389 c18 -21 73 -51 73 -40 0 6 -19 20 -42 32 -25 13 -38 16 -31 8z"></path><path id="poedPBTK3" d="M6598 3384 c-16 -8 -28 -19 -28 -25 0 -8 34 10 69 38 12 9 -18 0 -41 -13z"></path><path id="pQp4SdioW" d="M4964 3179 c-95 -11 -219 -58 -304 -114 -188 -125 -310 -352 -310 -580 0 -202 78 -377 229 -517 79 -74 171 -125 281 -159 94 -29 260 -32 359 -5 370 97 592 452 515 823 -73 355 -408 595 -770 552z"></path><path id="pVY9ITSo4" d="M3800 3166 c0 -3 342 -244 445 -313 31 -21 64 -15 96 16 35 35 37 71 7 105 -13 14 -100 60 -193 104 -162 75 -174 79 -263 86 -50 4 -92 5 -92 2z"></path><path id="pDkzU71YZ" d="M6165 3151 c-72 -6 -95 -14 -235 -79 -160 -76 -200 -105 -200 -148 0 -38 53 -87 88 -82 27 4 461 296 462 311 0 4 -8 6 -17 5 -10 -1 -54 -4 -98 -7z"></path><path id="pCSPIOPcD" d="M2941 3046 c11 -10 1248 -416 1267 -416 55 0 91 79 57 127 -21 29 -41 35 -350 97 -148 30 -427 87 -619 125 -356 73 -362 74 -355 67z"></path><path id="pzWjIAZyK" d="M6875 2994 c-143 -29 -282 -57 -310 -62 -122 -22 -653 -133 -682 -143 -64 -21 -83 -90 -38 -134 13 -14 34 -25 47 -25 13 0 304 94 648 209 344 115 618 209 610 209 -8 0 -132 -24 -275 -54z"></path><path id="pKWqj6hoD" d="M4158 2565 c-2 -1 -93 -5 -203 -9 -110 -4 -225 -9 -255 -11 -30 -2 -134 -7 -230 -10 -96 -3 -211 -8 -255 -10 -99 -6 -265 -12 -500 -21 -99 -4 -187 -8 -195 -10 -8 -1 -62 -3 -119 -3 -57 -1 -102 -3 -100 -5 4 -4 91 -9 379 -21 63 -3 165 -7 225 -10 276 -12 349 -15 480 -20 77 -3 176 -7 220 -10 44 -2 150 -7 235 -10 85 -3 196 -8 247 -11 123 -7 163 12 163 80 0 31 -34 73 -65 78 -13 3 -26 4 -27 3z"></path><path id="pIXZN6aOc" d="M5923 2562 c-67 -7 -96 -90 -48 -138 26 -25 27 -26 148 -20 67 3 178 8 247 11 69 3 168 8 220 10 52 3 158 7 235 10 166 6 334 14 465 20 52 2 160 7 240 10 213 8 364 17 369 21 2 2 -43 4 -100 5 -57 1 -117 2 -134 4 -16 1 -115 6 -220 9 -104 4 -210 9 -235 11 -25 2 -130 7 -235 10 -104 3 -215 8 -245 10 -30 2 -134 7 -230 11 -96 3 -236 9 -310 13 -74 3 -150 5 -167 3z"></path><path id="pT3Strv4K" d="M3563 2132 c-337 -114 -610 -208 -608 -210 2 -2 104 17 227 42 122 25 234 47 248 50 237 46 782 160 801 167 27 11 49 46 49 79 0 31 -48 80 -78 79 -15 -1 -302 -94 -639 -207z"></path><path id="pNCB4MTFp" d="M5865 2328 c-67 -38 -55 -136 18 -153 51 -12 768 -158 842 -171 44 -8 109 -22 145 -30 100 -23 272 -56 275 -52 4 4 -1236 419 -1250 418 -5 0 -19 -6 -30 -12z"></path><path id="pcFPqRQM5" d="M4262 2119 c-12 -5 -162 -106 -334 -225 -172 -120 -330 -229 -350 -243 -37 -25 -48 -41 -29 -41 9 0 651 298 748 347 72 37 92 86 53 135 -22 29 -56 39 -88 27z"></path><path id="pQirFshdo" d="M5751 2095 c-40 -52 -20 -106 53 -140 28 -12 101 -46 161 -75 61 -29 171 -80 245 -115 74 -34 198 -92 274 -129 77 -36 140 -65 142 -63 1 1 -171 124 -384 272 -329 229 -393 270 -428 273 -35 3 -44 0 -63 -23z"></path><path id="pyiK7Jdgk" d="M4359 1903 c-46 -51 -412 -511 -423 -531 -8 -16 -8 -16 10 -1 10 9 134 107 274 219 140 111 263 211 273 222 42 49 1 128 -66 128 -27 0 -42 -8 -68 -37z"></path><path id="p1002dYgMC" d="M5615 1915 c-30 -29 -33 -74 -7 -103 15 -17 134 -113 491 -397 41 -32 70 -52 66 -44 -16 26 -397 503 -428 537 -39 41 -86 44 -122 7z"></path><path id="p1Dvk3w0MJ" d="M4557 1778 c-13 -13 -48 -81 -77 -153 -29 -71 -73 -177 -98 -235 -60 -143 -83 -200 -77 -200 3 0 78 97 352 458 40 53 43 93 8 127 -31 32 -76 33 -108 3z"></path><path id="p13SxsAk17" d="M5435 1775 c-29 -29 -32 -70 -8 -105 44 -63 373 -491 373 -485 0 7 -85 213 -183 443 -34 81 -69 149 -81 158 -31 22 -74 17 -101 -11z"></path><path id="pelkfUZkh" d="M4761 1684 c-12 -15 -21 -30 -21 -35 0 -4 -16 -135 -35 -290 -19 -156 -34 -284 -32 -285 7 -7 227 537 227 562 0 69 -97 102 -139 48z"></path><path id="p1FbhCCKkf" d="M5221 1689 c-36 -34 -25 -78 98 -364 62 -143 110 -244 107 -225 -3 19 -20 154 -37 299 -37 297 -42 311 -108 311 -24 0 -45 -7 -60 -21z"></path><path id="pRidnymDb" d="M4992 1657 c-28 -30 -28 -41 7 -287 16 -113 33 -231 36 -262 4 -32 10 -58 14 -58 6 0 82 526 81 561 0 9 -9 28 -21 43 -27 35 -86 36 -117 3z"></path></g></g></svg>